{
  "source": "C:\\Users\\Peter\\Desktop\\stuff\\MIUN\\quantitative_research\\video_compression\\videos\\BVI-HD\\BVI-HD_CDVL_videos\\ORIG\\Hamster_1920x1080_60fps.mp4",
  "output": "C:\\Users\\Peter\\Desktop\\stuff\\MIUN\\quantitative_research\\video_compression\\compressed_videos\\BVI-HD\\hevc\\2\\Hamster_1920x1080_60fps_hevc.mp4",
  "codec": "hevc",
  "ok": "Input #0, mov,mp4,m4a,3gp,3g2,mj2, from 'C:\\Users\\Peter\\Desktop\\stuff\\MIUN\\quantitative_research\\video_compression\\videos\\BVI-HD\\BVI-HD_CDVL_videos\\ORIG\\Hamster_1920x1080_60fps.mp4':\n  Metadata:\n    major_brand     : isom\n    minor_version   : 512\n    compatible_brands: isomiso2avc1mp41\n    encoder         : Lavf54.28.101\n  Duration: 00:00:05.00, start: 0.000000, bitrate: 208485 kb/s\n  Stream #0:0[0x1](und): Video: h264 (High 4:4:4 Predictive) (avc1 / 0x31637661), yuv420p(progressive), 1920x1080, 208481 kb/s, 60 fps, 60 tbr, 60 tbn (default)\n    Metadata:\n      handler_name    : VideoHandler\n      vendor_id       : [0][0][0][0]\n[out#0/mp4 @ 000001e2191bae00] Codec AVOption b:a (set bitrate (in bits/s)) has not been used for any stream. The most likely reason is either wrong type (e.g. a video option with no video streams) or that it is a private option of some decoder which was not actually used for any stream.\nStream mapping:\n  Stream #0:0 -> #0:0 (h264 (native) -> hevc (libx265))\nPress [q] to stop, [?] for help\n[libx265 @ 000001e2197f07c0] Unknown option: \"aq-mode.\nx265 [info]: HEVC encoder version 4.1+190-8f11c33ac\nx265 [info]: build info [Windows][GCC 15.1.0][64 bit] 10bit\nx265 [info]: using cpu capabilities: MMX2 SSE2Fast LZCNT SSSE3 SSE4.2 AVX FMA3 BMI2 AVX2\nx265 [info]: Main 10 profile, Level-4.1 (Main tier)\nx265 [info]: Thread pool created using 12 threads\nx265 [info]: Slices                              : 1\nx265 [info]: frame threads / pool features       : 3 / wpp(17 rows)\nx265 [info]: Coding QT: max CU size, min CU size : 64 / 8\nx265 [info]: Residual QT: max TU size, max depth : 32 / 1 inter / 1 intra\nx265 [info]: ME / range / subpel / merge         : star / 57 / 3 / 3\nx265 [info]: Keyframe min / max / scenecut / bias  : 25 / 250 / 40 / 5.00 \nx265 [info]: Lookahead / bframes / badapt        : 25 / 4 / 2\nx265 [info]: b-pyramid / weightp / weightb       : 1 / 1 / 0\nx265 [info]: References / ref-limit  cu / depth  : 4 / on / on\nx265 [info]: AQ: mode / str / qg-size / cu-tree  : 2 / 1.0 / 32 / 1\nx265 [info]: Rate Control / qCompress            : ABR-2000 kbps / 0.60\nx265 [info]: VBV/HRD buffer / max-rate / init    : 2000 / 2000 / 0.750\nx265 [info]: tools: rect limit-modes rd=4 psy-rd=2.00 rdoq=2 psy-rdoq=1.00\nx265 [info]: tools: rskip mode=1 signhide tmvp strong-intra-smoothing lslices=4\nx265 [info]: tools: deblock sao dhdr10-info\nOutput #0, mp4, to 'C:\\Users\\Peter\\Desktop\\stuff\\MIUN\\quantitative_research\\video_compression\\compressed_videos\\BVI-HD\\hevc\\2\\Hamster_1920x1080_60fps_hevc.mp4':\n  Metadata:\n    major_brand     : isom\n    minor_version   : 512\n    compatible_brands: isomiso2avc1mp41\n    encoder         : Lavf62.3.100\n  Stream #0:0(und): Video: hevc (hev1 / 0x31766568), yuv420p10le(tv, progressive), 1920x1080, q=2-31, 2000 kb/s, 60 fps, 15360 tbn (default)\n    Metadata:\n      encoder         : Lavc62.11.100 libx265\n      handler_name    : VideoHandler\n      vendor_id       : [0][0][0][0]\n    Side data:\n      cpb: bitrate max/min/avg: 2000000/0/2000000 buffer size: 2000000 vbv_delay: N/A\nframe=    0 fps=0.0 q=0.0 size=       0KiB time=N/A bitrate=N/A speed=N/A elapsed=0:00:00.51    \nframe=    0 fps=0.0 q=0.0 size=       0KiB time=N/A bitrate=N/A speed=N/A elapsed=0:00:01.08    \nframe=    0 fps=0.0 q=0.0 size=       0KiB time=N/A bitrate=N/A speed=N/A elapsed=0:00:01.60    \nframe=    0 fps=0.0 q=0.0 size=       0KiB time=N/A bitrate=N/A speed=N/A elapsed=0:00:02.16    \nframe=    0 fps=0.0 q=0.0 size=       0KiB time=N/A bitrate=N/A speed=N/A elapsed=0:00:02.68    \nframe=    0 fps=0.0 q=0.0 size=       0KiB time=N/A bitrate=N/A speed=N/A elapsed=0:00:03.20    \nframe=    0 fps=0.0 q=0.0 size=       0KiB time=N/A bitrate=N/A speed=N/A elapsed=0:00:03.72    \nframe=    0 fps=0.0 q=0.0 size=       0KiB time=N/A bitrate=N/A speed=N/A elapsed=0:00:04.25    \nframe=    0 fps=0.0 q=0.0 size=       0KiB time=N/A bitrate=N/A speed=N/A elapsed=0:00:04.80    \nframe=    1 fps=0.2 q=39.0 size=       0KiB time=-00:00:00.01 bitrate=N/A speed=N/A elapsed=0:00:05.31    \nframe=    2 fps=0.3 q=42.1 size=       0KiB time=00:00:00.00 bitrate=N/A speed=   0x elapsed=0:00:05.83    \nframe=    2 fps=0.3 q=42.1 size=       0KiB time=00:00:00.00 bitrate=N/A speed=   0x elapsed=0:00:06.37    \nframe=    3 fps=0.4 q=43.3 size=       0KiB time=00:00:00.01 bitrate=  21.1kbits/s speed=0.00242x elapsed=0:00:06.89    \nframe=    3 fps=0.4 q=43.3 size=       0KiB time=00:00:00.01 bitrate=  21.1kbits/s speed=0.00225x elapsed=0:00:07.41    \nframe=    4 fps=0.5 q=43.6 size=       0KiB time=00:00:00.03 bitrate=  10.6kbits/s speed=0.00421x elapsed=0:00:07.91    \nframe=    4 fps=0.5 q=43.6 size=       0KiB time=00:00:00.03 bitrate=  10.6kbits/s speed=0.00395x elapsed=0:00:08.44    \nframe=    5 fps=0.6 q=42.0 size=       0KiB time=00:00:00.05 bitrate=   7.0kbits/s speed=0.00558x elapsed=0:00:08.96    \nframe=    6 fps=0.6 q=37.5 size=       0KiB time=00:00:00.06 bitrate=   5.3kbits/s speed=0.00703x elapsed=0:00:09.48    \nframe=    7 fps=0.7 q=40.0 size=       0KiB time=00:00:00.08 bitrate=   4.2kbits/s speed=0.00832x elapsed=0:00:10.01    \nframe=    7 fps=0.7 q=40.0 size=       0KiB time=00:00:00.08 bitrate=   4.2kbits/s speed=0.0079x elapsed=0:00:10.55    \nframe=    8 fps=0.7 q=39.5 size=       0KiB time=00:00:00.10 bitrate=   3.5kbits/s speed=0.00903x elapsed=0:00:11.07    \nframe=    8 fps=0.7 q=39.5 size=       0KiB time=00:00:00.10 bitrate=   3.5kbits/s speed=0.00863x elapsed=0:00:11.59    \nframe=    8 fps=0.7 q=39.5 size=       0KiB time=00:00:00.10 bitrate=   3.5kbits/s speed=0.00825x elapsed=0:00:12.11    \nframe=    9 fps=0.7 q=40.1 size=       0KiB time=00:00:00.11 bitrate=   3.0kbits/s speed=0.00922x elapsed=0:00:12.65    \nframe=    9 fps=0.7 q=40.1 size=       0KiB time=00:00:00.11 bitrate=   3.0kbits/s speed=0.00886x elapsed=0:00:13.17    \nframe=   10 fps=0.7 q=41.0 size=       0KiB time=00:00:00.13 bitrate=   2.6kbits/s speed=0.00973x elapsed=0:00:13.69    \nframe=   10 fps=0.7 q=41.0 size=       0KiB time=00:00:00.13 bitrate=   2.6kbits/s speed=0.00936x elapsed=0:00:14.25    \nframe=   11 fps=0.7 q=34.9 size=       0KiB time=00:00:00.15 bitrate=   2.3kbits/s speed=0.0102x elapsed=0:00:14.77    \nframe=   12 fps=0.8 q=39.5 size=       0KiB time=00:00:00.16 bitrate=   2.1kbits/s speed=0.0109x elapsed=0:00:15.27    \nframe=   12 fps=0.8 q=39.5 size=       0KiB time=00:00:00.16 bitrate=   2.1kbits/s speed=0.0106x elapsed=0:00:15.79    \nframe=   13 fps=0.8 q=41.0 size=       0KiB time=00:00:00.18 bitrate=   1.9kbits/s speed=0.0112x elapsed=0:00:16.33    \nframe=   14 fps=0.8 q=40.8 size=       0KiB time=00:00:00.20 bitrate=   1.8kbits/s speed=0.0119x elapsed=0:00:16.84    \nframe=   14 fps=0.8 q=40.8 size=       0KiB time=00:00:00.20 bitrate=   1.8kbits/s speed=0.0115x elapsed=0:00:17.36    \nframe=   14 fps=0.8 q=40.8 size=       0KiB time=00:00:00.20 bitrate=   1.8kbits/s speed=0.0112x elapsed=0:00:17.91    \nframe=   15 fps=0.8 q=35.7 size=       0KiB time=00:00:00.21 bitrate=   1.6kbits/s speed=0.0118x elapsed=0:00:18.43    \nframe=   16 fps=0.8 q=36.4 size=       0KiB time=00:00:00.23 bitrate=   1.5kbits/s speed=0.0123x elapsed=0:00:18.96    \nframe=   17 fps=0.9 q=40.0 size=       0KiB time=00:00:00.25 bitrate=   1.4kbits/s speed=0.0128x elapsed=0:00:19.48    \nframe=   18 fps=0.9 q=39.8 size=       0KiB time=00:00:00.26 bitrate=   1.3kbits/s speed=0.0133x elapsed=0:00:20.03    \nframe=   18 fps=0.9 q=39.8 size=       0KiB time=00:00:00.26 bitrate=   1.3kbits/s speed=0.013x elapsed=0:00:20.54    \nframe=   18 fps=0.9 q=39.8 size=       0KiB time=00:00:00.26 bitrate=   1.3kbits/s speed=0.0127x elapsed=0:00:21.06    \nframe=   19 fps=0.9 q=40.1 size=       0KiB time=00:00:00.28 bitrate=   1.2kbits/s speed=0.0131x elapsed=0:00:21.58    \nframe=   20 fps=0.9 q=34.9 size=       0KiB time=00:00:00.30 bitrate=   1.2kbits/s speed=0.0136x elapsed=0:00:22.10    \nframe=   21 fps=0.9 q=37.6 size=       0KiB time=00:00:00.31 bitrate=   1.1kbits/s speed=0.014x elapsed=0:00:22.62    \nframe=   21 fps=0.9 q=37.6 size=       0KiB time=00:00:00.31 bitrate=   1.1kbits/s speed=0.0137x elapsed=0:00:23.14    \nframe=   22 fps=0.9 q=39.7 size=       0KiB time=00:00:00.33 bitrate=   1.1kbits/s speed=0.0141x elapsed=0:00:23.66    \nframe=   23 fps=1.0 q=39.7 size=       0KiB time=00:00:00.35 bitrate=   1.0kbits/s speed=0.0145x elapsed=0:00:24.18    \nframe=   24 fps=1.0 q=34.9 size=       0KiB time=00:00:00.36 bitrate=   1.0kbits/s speed=0.0148x elapsed=0:00:24.70    \nframe=   24 fps=1.0 q=34.9 size=       0KiB time=00:00:00.36 bitrate=   1.0kbits/s speed=0.0145x elapsed=0:00:25.23    \nframe=   25 fps=1.0 q=37.4 size=       0KiB time=00:00:00.38 bitrate=   0.9kbits/s speed=0.0149x elapsed=0:00:25.75    \nframe=   26 fps=1.0 q=39.3 size=       0KiB time=00:00:00.40 bitrate=   0.9kbits/s speed=0.0152x elapsed=0:00:26.27    \nframe=   26 fps=1.0 q=39.3 size=       0KiB time=00:00:00.40 bitrate=   0.9kbits/s speed=0.0149x elapsed=0:00:26.77    \nframe=   27 fps=1.0 q=39.0 size=       0KiB time=00:00:00.41 bitrate=   0.8kbits/s speed=0.0153x elapsed=0:00:27.30    \nframe=   27 fps=1.0 q=39.0 size=       0KiB time=00:00:00.41 bitrate=   0.8kbits/s speed=0.015x elapsed=0:00:27.81    \nframe=   27 fps=1.0 q=39.0 size=       0KiB time=00:00:00.41 bitrate=   0.8kbits/s speed=0.0147x elapsed=0:00:28.35    \nframe=   28 fps=1.0 q=34.3 size=       0KiB time=00:00:00.43 bitrate=   0.8kbits/s speed=0.015x elapsed=0:00:28.89    \nframe=   29 fps=1.0 q=37.5 size=       0KiB time=00:00:00.45 bitrate=   0.8kbits/s speed=0.0153x elapsed=0:00:29.42    \nframe=   30 fps=1.0 q=39.2 size=       0KiB time=00:00:00.46 bitrate=   0.8kbits/s speed=0.0156x elapsed=0:00:29.96    \nframe=   30 fps=1.0 q=39.2 size=       0KiB time=00:00:00.46 bitrate=   0.8kbits/s speed=0.0153x elapsed=0:00:30.50    \nframe=   30 fps=1.0 q=39.2 size=       0KiB time=00:00:00.46 bitrate=   0.8kbits/s speed=0.015x elapsed=0:00:31.02    \nframe=   31 fps=1.0 q=39.3 size=       0KiB time=00:00:00.48 bitrate=   0.7kbits/s speed=0.0153x elapsed=0:00:31.53    \nframe=   32 fps=1.0 q=34.4 size=       0KiB time=00:00:00.50 bitrate=   0.7kbits/s speed=0.0156x elapsed=0:00:32.04    \nframe=   33 fps=1.0 q=37.2 size=       0KiB time=00:00:00.51 bitrate=   0.7kbits/s speed=0.0159x elapsed=0:00:32.56    \nframe=   34 fps=1.0 q=39.8 size=       0KiB time=00:00:00.53 bitrate=   0.7kbits/s speed=0.0161x elapsed=0:00:33.09    \nframe=   34 fps=1.0 q=39.8 size=       0KiB time=00:00:00.53 bitrate=   0.7kbits/s speed=0.0159x elapsed=0:00:33.62    \nframe=   34 fps=1.0 q=39.8 size=       0KiB time=00:00:00.53 bitrate=   0.7kbits/s speed=0.0156x elapsed=0:00:34.14    \nframe=   35 fps=1.0 q=39.2 size=       0KiB time=00:00:00.55 bitrate=   0.6kbits/s speed=0.0159x elapsed=0:00:34.67    \nframe=   35 fps=1.0 q=39.2 size=       0KiB time=00:00:00.55 bitrate=   0.6kbits/s speed=0.0156x elapsed=0:00:35.19    \nframe=   36 fps=1.0 q=33.8 size=       0KiB time=00:00:00.56 bitrate=   0.6kbits/s speed=0.0159x elapsed=0:00:35.70    \nframe=   37 fps=1.0 q=37.4 size=       0KiB time=00:00:00.58 bitrate=   0.6kbits/s speed=0.0161x elapsed=0:00:36.23    \nframe=   37 fps=1.0 q=37.4 size=       0KiB time=00:00:00.58 bitrate=   0.6kbits/s speed=0.0159x elapsed=0:00:36.75    \nframe=   38 fps=1.0 q=40.0 size=       0KiB time=00:00:00.60 bitrate=   0.6kbits/s speed=0.0161x elapsed=0:00:37.27    \nframe=   38 fps=1.0 q=40.0 size=       0KiB time=00:00:00.60 bitrate=   0.6kbits/s speed=0.0159x elapsed=0:00:37.78    \nframe=   39 fps=1.0 q=39.4 size=       0KiB time=00:00:00.61 bitrate=   0.6kbits/s speed=0.0161x elapsed=0:00:38.31    \nframe=   39 fps=1.0 q=39.4 size=       0KiB time=00:00:00.61 bitrate=   0.6kbits/s speed=0.0159x elapsed=0:00:38.83    \nframe=   40 fps=1.0 q=34.1 size=       0KiB time=00:00:00.63 bitrate=   0.6kbits/s speed=0.0161x elapsed=0:00:39.37    \nframe=   40 fps=1.0 q=34.1 size=       0KiB time=00:00:00.63 bitrate=   0.6kbits/s speed=0.0159x elapsed=0:00:39.89    \nframe=   41 fps=1.0 q=37.1 size=       0KiB time=00:00:00.65 bitrate=   0.5kbits/s speed=0.0161x elapsed=0:00:40.42    \nframe=   41 fps=1.0 q=37.1 size=       0KiB time=00:00:00.65 bitrate=   0.5kbits/s speed=0.0159x elapsed=0:00:40.95    \nframe=   42 fps=1.0 q=39.4 size=       0KiB time=00:00:00.66 bitrate=   0.5kbits/s speed=0.0161x elapsed=0:00:41.50    \nframe=   42 fps=1.0 q=39.4 size=       0KiB time=00:00:00.66 bitrate=   0.5kbits/s speed=0.0159x elapsed=0:00:42.04    \nframe=   42 fps=1.0 q=39.4 size=       0KiB time=00:00:00.66 bitrate=   0.5kbits/s speed=0.0157x elapsed=0:00:42.59    \nframe=   42 fps=1.0 q=39.4 size=       0KiB time=00:00:00.66 bitrate=   0.5kbits/s speed=0.0155x elapsed=0:00:43.13    \nframe=   43 fps=1.0 q=39.3 size=       0KiB time=00:00:00.68 bitrate=   0.5kbits/s speed=0.0156x elapsed=0:00:43.69    \nframe=   43 fps=1.0 q=39.3 size=       0KiB time=00:00:00.68 bitrate=   0.5kbits/s speed=0.0154x elapsed=0:00:44.22    \nframe=   43 fps=1.0 q=39.3 size=       0KiB time=00:00:00.68 bitrate=   0.5kbits/s speed=0.0153x elapsed=0:00:44.75    \nframe=   45 fps=1.0 q=38.2 size=       0KiB time=00:00:00.71 bitrate=   0.5kbits/s speed=0.0158x elapsed=0:00:45.30    \nframe=   46 fps=1.0 q=39.2 size=       0KiB time=00:00:00.73 bitrate=   0.5kbits/s speed=0.016x elapsed=0:00:45.85    \nframe=   47 fps=1.0 q=38.9 size=       0KiB time=00:00:00.75 bitrate=   0.5kbits/s speed=0.0162x elapsed=0:00:46.38    \nframe=   47 fps=1.0 q=38.9 size=       0KiB time=00:00:00.75 bitrate=   0.5kbits/s speed=0.016x elapsed=0:00:46.92    \nframe=   47 fps=1.0 q=38.9 size=       0KiB time=00:00:00.75 bitrate=   0.5kbits/s speed=0.0158x elapsed=0:00:47.45    \nframe=   47 fps=1.0 q=38.9 size=       0KiB time=00:00:00.75 bitrate=   0.5kbits/s speed=0.0156x elapsed=0:00:47.99    \nframe=   47 fps=1.0 q=38.9 size=       0KiB time=00:00:00.75 bitrate=   0.5kbits/s speed=0.0155x elapsed=0:00:48.53    \nframe=   47 fps=1.0 q=38.9 size=       0KiB time=00:00:00.75 bitrate=   0.5kbits/s speed=0.0153x elapsed=0:00:49.06    \nframe=   48 fps=1.0 q=39.2 size=       0KiB time=00:00:00.76 bitrate=   0.5kbits/s speed=0.0155x elapsed=0:00:49.60    \nframe=   48 fps=1.0 q=39.2 size=       0KiB time=00:00:00.76 bitrate=   0.5kbits/s speed=0.0153x elapsed=0:00:50.14    \nframe=   48 fps=0.9 q=39.2 size=       0KiB time=00:00:00.76 bitrate=   0.5kbits/s speed=0.0151x elapsed=0:00:50.67    \nframe=   49 fps=1.0 q=34.4 size=       0KiB time=00:00:00.78 bitrate=   0.4kbits/s speed=0.0153x elapsed=0:00:51.21    \nframe=   49 fps=0.9 q=34.4 size=       0KiB time=00:00:00.78 bitrate=   0.4kbits/s speed=0.0151x elapsed=0:00:51.77    \nframe=   49 fps=0.9 q=34.4 size=       0KiB time=00:00:00.78 bitrate=   0.4kbits/s speed=0.015x elapsed=0:00:52.35    \nframe=   49 fps=0.9 q=34.4 size=       0KiB time=00:00:00.78 bitrate=   0.4kbits/s speed=0.0148x elapsed=0:00:52.87    \nframe=   50 fps=0.9 q=37.3 size=       0KiB time=00:00:00.80 bitrate=   0.4kbits/s speed=0.015x elapsed=0:00:53.42    \nframe=   50 fps=0.9 q=37.3 size=       0KiB time=00:00:00.80 bitrate=   0.4kbits/s speed=0.0148x elapsed=0:00:53.99    \nframe=   50 fps=0.9 q=37.3 size=       0KiB time=00:00:00.80 bitrate=   0.4kbits/s speed=0.0147x elapsed=0:00:54.52    \nframe=   51 fps=0.9 q=39.4 size=       0KiB time=00:00:00.81 bitrate=   0.4kbits/s speed=0.0148x elapsed=0:00:55.06    \nframe=   51 fps=0.9 q=39.4 size=       0KiB time=00:00:00.81 bitrate=   0.4kbits/s speed=0.0147x elapsed=0:00:55.60    \nframe=   52 fps=0.9 q=39.5 size=       0KiB time=00:00:00.83 bitrate=   0.4kbits/s speed=0.0148x elapsed=0:00:56.16    \nframe=   52 fps=0.9 q=39.5 size=       0KiB time=00:00:00.83 bitrate=   0.4kbits/s speed=0.0147x elapsed=0:00:56.76    \nframe=   52 fps=0.9 q=39.5 size=       0KiB time=00:00:00.83 bitrate=   0.4kbits/s speed=0.0145x elapsed=0:00:57.28    \nframe=   52 fps=0.9 q=39.5 size=       0KiB time=00:00:00.83 bitrate=   0.4kbits/s speed=0.0144x elapsed=0:00:57.80    \nframe=   52 fps=0.9 q=39.5 size=       0KiB time=00:00:00.83 bitrate=   0.4kbits/s speed=0.0143x elapsed=0:00:58.34    \nframe=   52 fps=0.9 q=39.5 size=       0KiB time=00:00:00.83 bitrate=   0.4kbits/s speed=0.0142x elapsed=0:00:58.88    \nframe=   52 fps=0.9 q=39.5 size=       0KiB time=00:00:00.83 bitrate=   0.4kbits/s speed=0.014x elapsed=0:00:59.50    \nframe=   53 fps=0.9 q=34.9 size=       0KiB time=00:00:00.85 bitrate=   0.4kbits/s speed=0.0141x elapsed=0:01:00.08    \nframe=   53 fps=0.9 q=34.9 size=       0KiB time=00:00:00.85 bitrate=   0.4kbits/s speed=0.014x elapsed=0:01:00.68    \nframe=   53 fps=0.9 q=34.9 size=       0KiB time=00:00:00.85 bitrate=   0.4kbits/s speed=0.0139x elapsed=0:01:01.31    \nframe=   54 fps=0.9 q=37.5 size=       0KiB time=00:00:00.86 bitrate=   0.4kbits/s speed=0.014x elapsed=0:01:01.91    \nframe=   54 fps=0.9 q=37.5 size=       0KiB time=00:00:00.86 bitrate=   0.4kbits/s speed=0.0139x elapsed=0:01:02.46    \nframe=   54 fps=0.9 q=37.5 size=       0KiB time=00:00:00.86 bitrate=   0.4kbits/s speed=0.0138x elapsed=0:01:03.01    \nframe=   54 fps=0.8 q=37.5 size=       0KiB time=00:00:00.86 bitrate=   0.4kbits/s speed=0.0136x elapsed=0:01:03.58    \nframe=   54 fps=0.8 q=37.5 size=       0KiB time=00:00:00.86 bitrate=   0.4kbits/s speed=0.0135x elapsed=0:01:04.12    \nframe=   55 fps=0.9 q=39.4 size=       0KiB time=00:00:00.88 bitrate=   0.4kbits/s speed=0.0137x elapsed=0:01:04.64    \nframe=   55 fps=0.8 q=39.4 size=       0KiB time=00:00:00.88 bitrate=   0.4kbits/s speed=0.0136x elapsed=0:01:05.18    \nframe=   55 fps=0.8 q=39.4 size=       0KiB time=00:00:00.88 bitrate=   0.4kbits/s speed=0.0134x elapsed=0:01:05.70    \nframe=   56 fps=0.8 q=39.3 size=       0KiB time=00:00:00.90 bitrate=   0.4kbits/s speed=0.0136x elapsed=0:01:06.22    \nframe=   56 fps=0.8 q=39.3 size=       0KiB time=00:00:00.90 bitrate=   0.4kbits/s speed=0.0135x elapsed=0:01:06.74    \nframe=   56 fps=0.8 q=39.3 size=       0KiB time=00:00:00.90 bitrate=   0.4kbits/s speed=0.0134x elapsed=0:01:07.27    \nframe=   56 fps=0.8 q=39.3 size=       0KiB time=00:00:00.90 bitrate=   0.4kbits/s speed=0.0133x elapsed=0:01:07.79    \nframe=   57 fps=0.8 q=34.6 size=       0KiB time=00:00:00.91 bitrate=   0.4kbits/s speed=0.0134x elapsed=0:01:08.32    \nframe=   58 fps=0.8 q=37.5 size=       0KiB time=00:00:00.93 bitrate=   0.4kbits/s speed=0.0136x elapsed=0:01:08.82    \nframe=   58 fps=0.8 q=37.5 size=       0KiB time=00:00:00.93 bitrate=   0.4kbits/s speed=0.0135x elapsed=0:01:09.35    \nframe=   58 fps=0.8 q=37.5 size=       0KiB time=00:00:00.93 bitrate=   0.4kbits/s speed=0.0134x elapsed=0:01:09.89    \nframe=   59 fps=0.8 q=39.4 size=       0KiB time=00:00:00.95 bitrate=   0.4kbits/s speed=0.0135x elapsed=0:01:10.43    \nframe=   60 fps=0.8 q=34.4 size=       0KiB time=00:00:00.96 bitrate=   0.4kbits/s speed=0.0136x elapsed=0:01:10.97    \nframe=   60 fps=0.8 q=34.4 size=       0KiB time=00:00:00.96 bitrate=   0.4kbits/s speed=0.0135x elapsed=0:01:11.48    \nframe=   60 fps=0.8 q=34.4 size=       0KiB time=00:00:00.96 bitrate=   0.4kbits/s speed=0.0134x elapsed=0:01:12.00    \nframe=   61 fps=0.8 q=38.2 size=       0KiB time=00:00:00.98 bitrate=   0.4kbits/s speed=0.0136x elapsed=0:01:12.52    \nframe=   62 fps=0.8 q=39.5 size=       0KiB time=00:00:01.00 bitrate=   0.4kbits/s speed=0.0137x elapsed=0:01:13.02    \nframe=   63 fps=0.9 q=39.3 size=       0KiB time=00:00:01.01 bitrate=   0.3kbits/s speed=0.0138x elapsed=0:01:13.55    \nframe=   64 fps=0.9 q=39.4 size=       0KiB time=00:00:01.03 bitrate=   0.3kbits/s speed=0.0139x elapsed=0:01:14.08    \nframe=   64 fps=0.9 q=39.4 size=       0KiB time=00:00:01.03 bitrate=   0.3kbits/s speed=0.0138x elapsed=0:01:14.63    \nframe=   65 fps=0.9 q=35.0 size=       0KiB time=00:00:01.05 bitrate=   0.3kbits/s speed=0.014x elapsed=0:01:15.17    \nframe=   65 fps=0.9 q=35.0 size=       0KiB time=00:00:01.05 bitrate=   0.3kbits/s speed=0.0139x elapsed=0:01:15.69    \nframe=   66 fps=0.9 q=38.3 size=       0KiB time=00:00:01.06 bitrate=   0.3kbits/s speed=0.014x elapsed=0:01:16.22    \nframe=   67 fps=0.9 q=39.1 size=       0KiB time=00:00:01.08 bitrate=   0.3kbits/s speed=0.0141x elapsed=0:01:16.77    \nframe=   68 fps=0.9 q=39.3 size=       0KiB time=00:00:01.10 bitrate=   0.3kbits/s speed=0.0142x elapsed=0:01:17.30    \nframe=   68 fps=0.9 q=39.3 size=       0KiB time=00:00:01.10 bitrate=   0.3kbits/s speed=0.0141x elapsed=0:01:17.82    \nframe=   68 fps=0.9 q=39.3 size=       0KiB time=00:00:01.10 bitrate=   0.3kbits/s speed=0.014x elapsed=0:01:18.36    \nframe=   69 fps=0.9 q=39.7 size=     256KiB time=00:00:01.11 bitrate=1878.4kbits/s speed=0.0142x elapsed=0:01:18.91    \nframe=   69 fps=0.9 q=39.7 size=     256KiB time=00:00:01.11 bitrate=1878.4kbits/s speed=0.0141x elapsed=0:01:19.45    \nframe=   69 fps=0.9 q=39.7 size=     256KiB time=00:00:01.11 bitrate=1878.4kbits/s speed=0.014x elapsed=0:01:19.97    \nframe=   69 fps=0.9 q=39.7 size=     256KiB time=00:00:01.11 bitrate=1878.4kbits/s speed=0.0139x elapsed=0:01:20.51    \nframe=   70 fps=0.9 q=34.8 size=     256KiB time=00:00:01.13 bitrate=1850.7kbits/s speed=0.014x elapsed=0:01:21.06    \nframe=   70 fps=0.9 q=34.8 size=     256KiB time=00:00:01.13 bitrate=1850.7kbits/s speed=0.0139x elapsed=0:01:21.61    \nframe=   70 fps=0.9 q=34.8 size=     256KiB time=00:00:01.13 bitrate=1850.7kbits/s speed=0.0138x elapsed=0:01:22.19    \nframe=   71 fps=0.9 q=39.3 size=     256KiB time=00:00:01.15 bitrate=1823.9kbits/s speed=0.0139x elapsed=0:01:22.73    \nframe=   71 fps=0.9 q=39.3 size=     256KiB time=00:00:01.15 bitrate=1823.9kbits/s speed=0.0138x elapsed=0:01:23.25    \nframe=   71 fps=0.8 q=39.3 size=     256KiB time=00:00:01.15 bitrate=1823.9kbits/s speed=0.0137x elapsed=0:01:23.76    \nframe=   72 fps=0.9 q=34.9 size=     256KiB time=00:00:01.16 bitrate=1797.9kbits/s speed=0.0138x elapsed=0:01:24.30    \nframe=   72 fps=0.8 q=34.9 size=     256KiB time=00:00:01.16 bitrate=1797.9kbits/s speed=0.0138x elapsed=0:01:24.82    \nframe=   72 fps=0.8 q=34.9 size=     256KiB time=00:00:01.16 bitrate=1797.9kbits/s speed=0.0137x elapsed=0:01:25.37    \nframe=   72 fps=0.8 q=34.9 size=     256KiB time=00:00:01.16 bitrate=1797.9kbits/s speed=0.0136x elapsed=0:01:25.91    \nframe=   73 fps=0.8 q=37.5 size=     256KiB time=00:00:01.18 bitrate=1772.5kbits/s speed=0.0137x elapsed=0:01:26.45    \nframe=   73 fps=0.8 q=37.5 size=     256KiB time=00:00:01.18 bitrate=1772.5kbits/s speed=0.0136x elapsed=0:01:26.97    \nframe=   73 fps=0.8 q=37.5 size=     256KiB time=00:00:01.18 bitrate=1772.5kbits/s speed=0.0135x elapsed=0:01:27.50    \nframe=   74 fps=0.8 q=39.4 size=     256KiB time=00:00:01.20 bitrate=1747.9kbits/s speed=0.0136x elapsed=0:01:28.06    \nframe=   74 fps=0.8 q=39.4 size=     256KiB time=00:00:01.20 bitrate=1747.9kbits/s speed=0.0135x elapsed=0:01:28.63    \nframe=   74 fps=0.8 q=39.4 size=     256KiB time=00:00:01.20 bitrate=1747.9kbits/s speed=0.0135x elapsed=0:01:29.17    \nframe=   74 fps=0.8 q=39.4 size=     256KiB time=00:00:01.20 bitrate=1747.9kbits/s speed=0.0134x elapsed=0:01:29.69    \nframe=   75 fps=0.8 q=39.2 size=     256KiB time=00:00:01.21 bitrate=1724.0kbits/s speed=0.0135x elapsed=0:01:30.23    \nframe=   75 fps=0.8 q=39.2 size=     256KiB time=00:00:01.21 bitrate=1724.0kbits/s speed=0.0134x elapsed=0:01:30.76    \nframe=   75 fps=0.8 q=39.2 size=     256KiB time=00:00:01.21 bitrate=1724.0kbits/s speed=0.0133x elapsed=0:01:31.31    \nframe=   75 fps=0.8 q=39.2 size=     256KiB time=00:00:01.21 bitrate=1724.0kbits/s speed=0.0132x elapsed=0:01:31.84    \nframe=   76 fps=0.8 q=35.2 size=     256KiB time=00:00:01.23 bitrate=1700.7kbits/s speed=0.0134x elapsed=0:01:32.37    \nframe=   76 fps=0.8 q=35.2 size=     256KiB time=00:00:01.23 bitrate=1700.7kbits/s speed=0.0133x elapsed=0:01:32.94    \nframe=   77 fps=0.8 q=37.6 size=     256KiB time=00:00:01.25 bitrate=1678.0kbits/s speed=0.0134x elapsed=0:01:33.46    \nframe=   77 fps=0.8 q=37.6 size=     256KiB time=00:00:01.25 bitrate=1678.0kbits/s speed=0.0133x elapsed=0:01:33.98    \nframe=   77 fps=0.8 q=37.6 size=     256KiB time=00:00:01.25 bitrate=1678.0kbits/s speed=0.0132x elapsed=0:01:34.51    \nframe=   77 fps=0.8 q=37.6 size=     256KiB time=00:00:01.25 bitrate=1678.0kbits/s speed=0.0131x elapsed=0:01:35.05    \nframe=   77 fps=0.8 q=37.6 size=     256KiB time=00:00:01.25 bitrate=1678.0kbits/s speed=0.0131x elapsed=0:01:35.60    \nframe=   77 fps=0.8 q=37.6 size=     256KiB time=00:00:01.25 bitrate=1678.0kbits/s speed=0.013x elapsed=0:01:36.12    \nframe=   78 fps=0.8 q=39.4 size=     256KiB time=00:00:01.26 bitrate=1655.9kbits/s speed=0.0131x elapsed=0:01:36.66    \nframe=   78 fps=0.8 q=39.4 size=     256KiB time=00:00:01.26 bitrate=1655.9kbits/s speed=0.013x elapsed=0:01:37.19    \nframe=   78 fps=0.8 q=39.4 size=     256KiB time=00:00:01.26 bitrate=1655.9kbits/s speed=0.013x elapsed=0:01:37.72    \nframe=   79 fps=0.8 q=39.9 size=     256KiB time=00:00:01.28 bitrate=1634.4kbits/s speed=0.0131x elapsed=0:01:38.24    \nframe=   79 fps=0.8 q=39.9 size=     256KiB time=00:00:01.28 bitrate=1634.4kbits/s speed=0.013x elapsed=0:01:38.78    \nframe=   79 fps=0.8 q=39.9 size=     256KiB time=00:00:01.28 bitrate=1634.4kbits/s speed=0.0129x elapsed=0:01:39.33    \nframe=   79 fps=0.8 q=39.9 size=     256KiB time=00:00:01.28 bitrate=1634.4kbits/s speed=0.0128x elapsed=0:01:39.94    \nframe=   79 fps=0.8 q=39.9 size=     256KiB time=00:00:01.28 bitrate=1634.4kbits/s speed=0.0128x elapsed=0:01:40.49    \nframe=   79 fps=0.8 q=39.9 size=     256KiB time=00:00:01.28 bitrate=1634.4kbits/s speed=0.0127x elapsed=0:01:41.10    \nframe=   80 fps=0.8 q=34.9 size=     256KiB time=00:00:01.30 bitrate=1613.5kbits/s speed=0.0128x elapsed=0:01:41.66    \nframe=   81 fps=0.8 q=38.8 size=     256KiB time=00:00:01.31 bitrate=1593.0kbits/s speed=0.0129x elapsed=0:01:42.20    \nframe=   82 fps=0.8 q=40.1 size=     256KiB time=00:00:01.33 bitrate=1573.1kbits/s speed=0.013x elapsed=0:01:42.73    \nframe=   82 fps=0.8 q=40.1 size=     256KiB time=00:00:01.33 bitrate=1573.1kbits/s speed=0.0129x elapsed=0:01:43.25    \nframe=   82 fps=0.8 q=40.1 size=     256KiB time=00:00:01.33 bitrate=1573.1kbits/s speed=0.0128x elapsed=0:01:43.80    \nframe=   83 fps=0.8 q=40.1 size=     256KiB time=00:00:01.35 bitrate=1553.7kbits/s speed=0.0129x elapsed=0:01:44.31    \nframe=   83 fps=0.8 q=40.1 size=     256KiB time=00:00:01.35 bitrate=1553.7kbits/s speed=0.0129x elapsed=0:01:44.84    \nframe=   83 fps=0.8 q=40.1 size=     256KiB time=00:00:01.35 bitrate=1553.7kbits/s speed=0.0128x elapsed=0:01:45.39    \nframe=   83 fps=0.8 q=40.1 size=     256KiB time=00:00:01.35 bitrate=1553.7kbits/s speed=0.0127x elapsed=0:01:45.93    \nframe=   83 fps=0.8 q=40.1 size=     256KiB time=00:00:01.35 bitrate=1553.7kbits/s speed=0.0127x elapsed=0:01:46.49    \nframe=   84 fps=0.8 q=40.3 size=     256KiB time=00:00:01.36 bitrate=1534.8kbits/s speed=0.0128x elapsed=0:01:47.09    \nframe=   84 fps=0.8 q=40.3 size=     256KiB time=00:00:01.36 bitrate=1534.8kbits/s speed=0.0127x elapsed=0:01:47.61    \nframe=   84 fps=0.8 q=40.3 size=     256KiB time=00:00:01.36 bitrate=1534.8kbits/s speed=0.0126x elapsed=0:01:48.16    \nframe=   84 fps=0.8 q=40.3 size=     256KiB time=00:00:01.36 bitrate=1534.8kbits/s speed=0.0126x elapsed=0:01:48.72    \nframe=   85 fps=0.8 q=35.1 size=     256KiB time=00:00:01.38 bitrate=1516.3kbits/s speed=0.0127x elapsed=0:01:49.24    \nframe=   85 fps=0.8 q=35.1 size=     256KiB time=00:00:01.38 bitrate=1516.3kbits/s speed=0.0126x elapsed=0:01:49.78    \nframe=   85 fps=0.8 q=35.1 size=     256KiB time=00:00:01.38 bitrate=1516.3kbits/s speed=0.0125x elapsed=0:01:50.33    \nframe=   87 fps=0.8 q=40.4 size=     256KiB time=00:00:01.41 bitrate=1480.6kbits/s speed=0.0128x elapsed=0:01:50.87    \nframe=   87 fps=0.8 q=40.4 size=     256KiB time=00:00:01.41 bitrate=1480.6kbits/s speed=0.0127x elapsed=0:01:51.39    \nframe=   87 fps=0.8 q=40.4 size=     256KiB time=00:00:01.41 bitrate=1480.6kbits/s speed=0.0127x elapsed=0:01:51.91    \nframe=   87 fps=0.8 q=40.4 size=     256KiB time=00:00:01.41 bitrate=1480.6kbits/s speed=0.0126x elapsed=0:01:52.43    \nframe=   87 fps=0.8 q=40.4 size=     256KiB time=00:00:01.41 bitrate=1480.6kbits/s speed=0.0125x elapsed=0:01:52.98    \nframe=   87 fps=0.8 q=40.4 size=     256KiB time=00:00:01.41 bitrate=1480.6kbits/s speed=0.0125x elapsed=0:01:53.51    \nframe=   87 fps=0.8 q=40.4 size=     256KiB time=00:00:01.41 bitrate=1480.6kbits/s speed=0.0124x elapsed=0:01:54.06    \nframe=   87 fps=0.8 q=40.4 size=     256KiB time=00:00:01.41 bitrate=1480.6kbits/s speed=0.0124x elapsed=0:01:54.61    \nframe=   87 fps=0.8 q=40.4 size=     256KiB time=00:00:01.41 bitrate=1480.6kbits/s speed=0.0123x elapsed=0:01:55.20    \nframe=   88 fps=0.8 q=40.4 size=     256KiB time=00:00:01.43 bitrate=1463.4kbits/s speed=0.0124x elapsed=0:01:55.81    \nframe=   88 fps=0.8 q=40.4 size=     256KiB time=00:00:01.43 bitrate=1463.4kbits/s speed=0.0123x elapsed=0:01:56.39    \nframe=   88 fps=0.8 q=40.4 size=     256KiB time=00:00:01.43 bitrate=1463.4kbits/s speed=0.0123x elapsed=0:01:57.00    \nframe=   88 fps=0.7 q=40.4 size=     256KiB time=00:00:01.43 bitrate=1463.4kbits/s speed=0.0122x elapsed=0:01:57.53    \nframe=   88 fps=0.7 q=40.4 size=     256KiB time=00:00:01.43 bitrate=1463.4kbits/s speed=0.0121x elapsed=0:01:58.09    \nframe=   89 fps=0.8 q=35.5 size=     256KiB time=00:00:01.45 bitrate=1446.6kbits/s speed=0.0122x elapsed=0:01:58.65    \nframe=   89 fps=0.7 q=35.5 size=     256KiB time=00:00:01.45 bitrate=1446.6kbits/s speed=0.0122x elapsed=0:01:59.19    \nframe=   89 fps=0.7 q=35.5 size=     256KiB time=00:00:01.45 bitrate=1446.6kbits/s speed=0.0121x elapsed=0:01:59.74    \nframe=   90 fps=0.7 q=38.2 size=     256KiB time=00:00:01.46 bitrate=1430.1kbits/s speed=0.0122x elapsed=0:02:00.24    \nframe=   90 fps=0.7 q=38.2 size=     256KiB time=00:00:01.46 bitrate=1430.1kbits/s speed=0.0121x elapsed=0:02:00.76    \nframe=   91 fps=0.8 q=40.5 size=     256KiB time=00:00:01.48 bitrate=1414.0kbits/s speed=0.0122x elapsed=0:02:01.27    \nframe=   91 fps=0.7 q=40.5 size=     256KiB time=00:00:01.48 bitrate=1414.0kbits/s speed=0.0122x elapsed=0:02:01.80    \nframe=   91 fps=0.7 q=40.5 size=     256KiB time=00:00:01.48 bitrate=1414.0kbits/s speed=0.0121x elapsed=0:02:02.36    \nframe=   92 fps=0.7 q=40.6 size=     256KiB time=00:00:01.50 bitrate=1398.3kbits/s speed=0.0122x elapsed=0:02:02.87    \nframe=   93 fps=0.8 q=35.5 size=     256KiB time=00:00:01.51 bitrate=1383.0kbits/s speed=0.0123x elapsed=0:02:03.39    \nframe=   94 fps=0.8 q=38.5 size=     256KiB time=00:00:01.53 bitrate=1367.9kbits/s speed=0.0124x elapsed=0:02:03.91    \nframe=   94 fps=0.8 q=38.5 size=     256KiB time=00:00:01.53 bitrate=1367.9kbits/s speed=0.0123x elapsed=0:02:04.43    \nframe=   94 fps=0.8 q=38.5 size=     256KiB time=00:00:01.53 bitrate=1367.9kbits/s speed=0.0123x elapsed=0:02:04.95    \nframe=   95 fps=0.8 q=41.2 size=     256KiB time=00:00:01.55 bitrate=1353.2kbits/s speed=0.0124x elapsed=0:02:05.48    \nframe=   96 fps=0.8 q=36.0 size=     256KiB time=00:00:01.56 bitrate=1338.8kbits/s speed=0.0124x elapsed=0:02:06.00    \nframe=   96 fps=0.8 q=36.0 size=     256KiB time=00:00:01.56 bitrate=1338.8kbits/s speed=0.0124x elapsed=0:02:06.52    \nframe=   96 fps=0.8 q=36.0 size=     256KiB time=00:00:01.56 bitrate=1338.8kbits/s speed=0.0123x elapsed=0:02:07.06    \nframe=   97 fps=0.8 q=39.9 size=     256KiB time=00:00:01.58 bitrate=1324.7kbits/s speed=0.0124x elapsed=0:02:07.58    \nframe=   98 fps=0.8 q=41.2 size=     256KiB time=00:00:01.60 bitrate=1310.9kbits/s speed=0.0125x elapsed=0:02:08.10    \nframe=   98 fps=0.8 q=41.2 size=     256KiB time=00:00:01.60 bitrate=1310.9kbits/s speed=0.0124x elapsed=0:02:08.61    \nframe=   99 fps=0.8 q=41.0 size=     256KiB time=00:00:01.61 bitrate=1297.4kbits/s speed=0.0125x elapsed=0:02:09.16    \nframe=   99 fps=0.8 q=41.0 size=     256KiB time=00:00:01.61 bitrate=1297.4kbits/s speed=0.0125x elapsed=0:02:09.66    \nframe=  100 fps=0.8 q=41.3 size=     256KiB time=00:00:01.63 bitrate=1284.2kbits/s speed=0.0125x elapsed=0:02:10.18    \nframe=  101 fps=0.8 q=36.0 size=     256KiB time=00:00:01.65 bitrate=1271.2kbits/s speed=0.0126x elapsed=0:02:10.70    \nframe=  101 fps=0.8 q=36.0 size=     256KiB time=00:00:01.65 bitrate=1271.2kbits/s speed=0.0126x elapsed=0:02:11.27    \nframe=  101 fps=0.8 q=36.0 size=     256KiB time=00:00:01.65 bitrate=1271.2kbits/s speed=0.0125x elapsed=0:02:11.86    \nframe=  102 fps=0.8 q=38.6 size=     256KiB time=00:00:01.66 bitrate=1258.5kbits/s speed=0.0126x elapsed=0:02:12.41    \nframe=  103 fps=0.8 q=41.4 size=     256KiB time=00:00:01.68 bitrate=1246.0kbits/s speed=0.0127x elapsed=0:02:12.94    \nframe=  103 fps=0.8 q=41.4 size=     256KiB time=00:00:01.68 bitrate=1246.0kbits/s speed=0.0126x elapsed=0:02:13.49    \nframe=  103 fps=0.8 q=41.4 size=     256KiB time=00:00:01.68 bitrate=1246.0kbits/s speed=0.0126x elapsed=0:02:14.09    \nframe=  103 fps=0.8 q=41.4 size=     256KiB time=00:00:01.68 bitrate=1246.0kbits/s speed=0.0125x elapsed=0:02:14.67    \nframe=  104 fps=0.8 q=36.4 size=     256KiB time=00:00:01.70 bitrate=1233.8kbits/s speed=0.0126x elapsed=0:02:15.22    \nframe=  104 fps=0.8 q=36.4 size=     256KiB time=00:00:01.70 bitrate=1233.8kbits/s speed=0.0125x elapsed=0:02:15.76    \nframe=  104 fps=0.8 q=36.4 size=     256KiB time=00:00:01.70 bitrate=1233.8kbits/s speed=0.0125x elapsed=0:02:16.29    \nframe=  104 fps=0.8 q=36.4 size=     256KiB time=00:00:01.70 bitrate=1233.8kbits/s speed=0.0124x elapsed=0:02:16.83    \nframe=  105 fps=0.8 q=38.0 size=     256KiB time=00:00:01.71 bitrate=1221.8kbits/s speed=0.0125x elapsed=0:02:17.37    \nframe=  105 fps=0.8 q=38.0 size=     256KiB time=00:00:01.71 bitrate=1221.8kbits/s speed=0.0124x elapsed=0:02:17.88    \nframe=  106 fps=0.8 q=41.5 size=     256KiB time=00:00:01.71 bitrate=1221.8kbits/s speed=0.0124x elapsed=0:02:18.41    \nframe=  106 fps=0.8 q=41.5 size=     256KiB time=00:00:01.73 bitrate=1210.1kbits/s speed=0.0125x elapsed=0:02:18.95    \nframe=  106 fps=0.8 q=41.5 size=     256KiB time=00:00:01.73 bitrate=1210.1kbits/s speed=0.0124x elapsed=0:02:19.47    \nframe=  106 fps=0.8 q=41.5 size=     256KiB time=00:00:01.73 bitrate=1210.1kbits/s speed=0.0124x elapsed=0:02:20.00    \nframe=  107 fps=0.8 q=36.4 size=     256KiB time=00:00:01.75 bitrate=1198.6kbits/s speed=0.0125x elapsed=0:02:20.53    \nframe=  107 fps=0.8 q=36.4 size=     256KiB time=00:00:01.75 bitrate=1198.6kbits/s speed=0.0124x elapsed=0:02:21.07    \nframe=  107 fps=0.8 q=36.4 size=     256KiB time=00:00:01.75 bitrate=1198.6kbits/s speed=0.0124x elapsed=0:02:21.60    \nframe=  107 fps=0.8 q=36.4 size=     256KiB time=00:00:01.75 bitrate=1198.6kbits/s speed=0.0123x elapsed=0:02:22.13    \nframe=  108 fps=0.8 q=39.2 size=     256KiB time=00:00:01.76 bitrate=1187.3kbits/s speed=0.0124x elapsed=0:02:22.66    \nframe=  109 fps=0.8 q=41.9 size=     256KiB time=00:00:01.78 bitrate=1176.2kbits/s speed=0.0125x elapsed=0:02:23.20    \nframe=  109 fps=0.8 q=41.9 size=     256KiB time=00:00:01.78 bitrate=1176.2kbits/s speed=0.0124x elapsed=0:02:23.77    \nframe=  109 fps=0.8 q=41.9 size=     256KiB time=00:00:01.78 bitrate=1176.2kbits/s speed=0.0124x elapsed=0:02:24.30    \nframe=  109 fps=0.8 q=41.9 size=     256KiB time=00:00:01.78 bitrate=1176.2kbits/s speed=0.0123x elapsed=0:02:24.85    \nframe=  109 fps=0.7 q=41.9 size=     256KiB time=00:00:01.78 bitrate=1176.2kbits/s speed=0.0123x elapsed=0:02:25.37    \nframe=  109 fps=0.7 q=41.9 size=     256KiB time=00:00:01.78 bitrate=1176.2kbits/s speed=0.0122x elapsed=0:02:25.90    \nframe=  110 fps=0.8 q=41.9 size=     256KiB time=00:00:01.80 bitrate=1165.3kbits/s speed=0.0123x elapsed=0:02:26.46    \nframe=  110 fps=0.7 q=41.9 size=     256KiB time=00:00:01.80 bitrate=1165.3kbits/s speed=0.0122x elapsed=0:02:26.99    \nframe=  110 fps=0.7 q=41.9 size=     256KiB time=00:00:01.80 bitrate=1165.3kbits/s speed=0.0122x elapsed=0:02:27.51    \nframe=  111 fps=0.7 q=41.9 size=     256KiB time=00:00:01.81 bitrate=1154.6kbits/s speed=0.0123x elapsed=0:02:28.09    \nframe=  111 fps=0.7 q=41.9 size=     256KiB time=00:00:01.81 bitrate=1154.6kbits/s speed=0.0122x elapsed=0:02:28.64    \nframe=  111 fps=0.7 q=41.9 size=     256KiB time=00:00:01.81 bitrate=1154.6kbits/s speed=0.0122x elapsed=0:02:29.18    \nframe=  111 fps=0.7 q=41.9 size=     256KiB time=00:00:01.81 bitrate=1154.6kbits/s speed=0.0121x elapsed=0:02:29.72    \nframe=  111 fps=0.7 q=41.9 size=     256KiB time=00:00:01.81 bitrate=1154.6kbits/s speed=0.0121x elapsed=0:02:30.24    \nframe=  112 fps=0.7 q=36.1 size=     256KiB time=00:00:01.83 bitrate=1144.1kbits/s speed=0.0122x elapsed=0:02:30.77    \nframe=  112 fps=0.7 q=36.1 size=     256KiB time=00:00:01.83 bitrate=1144.1kbits/s speed=0.0121x elapsed=0:02:31.30    \nframe=  113 fps=0.7 q=39.6 size=     256KiB time=00:00:01.85 bitrate=1133.8kbits/s speed=0.0122x elapsed=0:02:31.84    \nframe=  114 fps=0.7 q=41.9 size=     256KiB time=00:00:01.86 bitrate=1123.7kbits/s speed=0.0122x elapsed=0:02:32.38    \nframe=  114 fps=0.7 q=41.9 size=     256KiB time=00:00:01.86 bitrate=1123.7kbits/s speed=0.0122x elapsed=0:02:32.93    \nframe=  114 fps=0.7 q=41.9 size=     256KiB time=00:00:01.86 bitrate=1123.7kbits/s speed=0.0122x elapsed=0:02:33.48    \nframe=  115 fps=0.7 q=42.2 size=     256KiB time=00:00:01.88 bitrate=1113.7kbits/s speed=0.0122x elapsed=0:02:34.02    \nframe=  116 fps=0.8 q=36.3 size=     256KiB time=00:00:01.90 bitrate=1103.9kbits/s speed=0.0123x elapsed=0:02:34.52    \nframe=  116 fps=0.7 q=36.3 size=     256KiB time=00:00:01.90 bitrate=1103.9kbits/s speed=0.0123x elapsed=0:02:35.05    \nframe=  116 fps=0.7 q=36.3 size=     256KiB time=00:00:01.90 bitrate=1103.9kbits/s speed=0.0122x elapsed=0:02:35.56    \nframe=  117 fps=0.7 q=40.8 size=     256KiB time=00:00:01.91 bitrate=1094.3kbits/s speed=0.0123x elapsed=0:02:36.07    \nframe=  117 fps=0.7 q=40.8 size=     256KiB time=00:00:01.91 bitrate=1094.3kbits/s speed=0.0122x elapsed=0:02:36.59    \nframe=  118 fps=0.8 q=42.0 size=     256KiB time=00:00:01.93 bitrate=1084.9kbits/s speed=0.0123x elapsed=0:02:37.12    \nframe=  118 fps=0.7 q=42.0 size=     256KiB time=00:00:01.93 bitrate=1084.9kbits/s speed=0.0123x elapsed=0:02:37.69    \nframe=  118 fps=0.7 q=42.0 size=     256KiB time=00:00:01.93 bitrate=1084.9kbits/s speed=0.0122x elapsed=0:02:38.26    \nframe=  118 fps=0.7 q=42.0 size=     256KiB time=00:00:01.93 bitrate=1084.9kbits/s speed=0.0122x elapsed=0:02:38.78    \nframe=  118 fps=0.7 q=42.0 size=     256KiB time=00:00:01.93 bitrate=1084.9kbits/s speed=0.0121x elapsed=0:02:39.30    \nframe=  118 fps=0.7 q=42.0 size=     256KiB time=00:00:01.93 bitrate=1084.9kbits/s speed=0.0121x elapsed=0:02:39.84    \nframe=  118 fps=0.7 q=42.0 size=     256KiB time=00:00:01.93 bitrate=1084.9kbits/s speed=0.0121x elapsed=0:02:40.38    \nframe=  120 fps=0.7 q=42.2 size=     512KiB time=00:00:01.96 bitrate=2132.9kbits/s speed=0.0122x elapsed=0:02:40.91    \nframe=  121 fps=0.7 q=36.2 size=     512KiB time=00:00:01.98 bitrate=2115.0kbits/s speed=0.0123x elapsed=0:02:41.43    \nframe=  121 fps=0.7 q=36.2 size=     512KiB time=00:00:01.98 bitrate=2115.0kbits/s speed=0.0122x elapsed=0:02:41.96    \nframe=  121 fps=0.7 q=36.2 size=     512KiB time=00:00:01.98 bitrate=2115.0kbits/s speed=0.0122x elapsed=0:02:42.49    \nframe=  122 fps=0.7 q=39.4 size=     512KiB time=00:00:02.00 bitrate=2097.3kbits/s speed=0.0123x elapsed=0:02:43.03    \nframe=  122 fps=0.7 q=39.4 size=     512KiB time=00:00:02.00 bitrate=2097.3kbits/s speed=0.0122x elapsed=0:02:43.56    \nframe=  122 fps=0.7 q=39.4 size=     512KiB time=00:00:02.00 bitrate=2097.3kbits/s speed=0.0122x elapsed=0:02:44.11    \nframe=  123 fps=0.7 q=42.1 size=     512KiB time=00:00:02.01 bitrate=2080.0kbits/s speed=0.0122x elapsed=0:02:44.64    \nframe=  123 fps=0.7 q=42.1 size=     512KiB time=00:00:02.01 bitrate=2080.0kbits/s speed=0.0122x elapsed=0:02:45.15    \nframe=  124 fps=0.7 q=42.3 size=     512KiB time=00:00:02.03 bitrate=2062.9kbits/s speed=0.0123x elapsed=0:02:45.69    \nframe=  124 fps=0.7 q=42.3 size=     512KiB time=00:00:02.03 bitrate=2062.9kbits/s speed=0.0122x elapsed=0:02:46.23    \nframe=  124 fps=0.7 q=42.3 size=     512KiB time=00:00:02.03 bitrate=2062.9kbits/s speed=0.0122x elapsed=0:02:46.75    \nframe=  125 fps=0.7 q=36.0 size=     512KiB time=00:00:02.05 bitrate=2046.2kbits/s speed=0.0123x elapsed=0:02:47.29    \nframe=  125 fps=0.7 q=36.0 size=     512KiB time=00:00:02.05 bitrate=2046.2kbits/s speed=0.0122x elapsed=0:02:47.83    \nframe=  125 fps=0.7 q=36.0 size=     512KiB time=00:00:02.05 bitrate=2046.2kbits/s speed=0.0122x elapsed=0:02:48.35    \nframe=  125 fps=0.7 q=36.0 size=     512KiB time=00:00:02.05 bitrate=2046.2kbits/s speed=0.0121x elapsed=0:02:48.89    \nframe=  126 fps=0.7 q=39.3 size=     512KiB time=00:00:02.06 bitrate=2029.7kbits/s speed=0.0122x elapsed=0:02:49.46    \nframe=  126 fps=0.7 q=39.3 size=     512KiB time=00:00:02.06 bitrate=2029.7kbits/s speed=0.0122x elapsed=0:02:50.03    \nframe=  126 fps=0.7 q=39.3 size=     512KiB time=00:00:02.06 bitrate=2029.7kbits/s speed=0.0121x elapsed=0:02:50.60    \nframe=  127 fps=0.7 q=42.1 size=     512KiB time=00:00:02.08 bitrate=2013.4kbits/s speed=0.0122x elapsed=0:02:51.26    \nframe=  127 fps=0.7 q=42.1 size=     512KiB time=00:00:02.08 bitrate=2013.4kbits/s speed=0.0121x elapsed=0:02:51.90    \nframe=  127 fps=0.7 q=42.1 size=     512KiB time=00:00:02.08 bitrate=2013.4kbits/s speed=0.0121x elapsed=0:02:52.48    \nframe=  127 fps=0.7 q=42.1 size=     512KiB time=00:00:02.08 bitrate=2013.4kbits/s speed=0.012x elapsed=0:02:53.04    \nframe=  128 fps=0.7 q=42.0 size=     512KiB time=00:00:02.10 bitrate=1997.5kbits/s speed=0.0121x elapsed=0:02:53.64    \nframe=  128 fps=0.7 q=42.0 size=     512KiB time=00:00:02.10 bitrate=1997.5kbits/s speed=0.0121x elapsed=0:02:54.19    \nframe=  128 fps=0.7 q=42.0 size=     512KiB time=00:00:02.10 bitrate=1997.5kbits/s speed=0.012x elapsed=0:02:54.71    \nframe=  129 fps=0.7 q=35.7 size=     512KiB time=00:00:02.11 bitrate=1981.7kbits/s speed=0.0121x elapsed=0:02:55.24    \nframe=  130 fps=0.7 q=40.6 size=     512KiB time=00:00:02.13 bitrate=1966.2kbits/s speed=0.0121x elapsed=0:02:55.81    \nframe=  131 fps=0.7 q=42.2 size=     512KiB time=00:00:02.15 bitrate=1951.0kbits/s speed=0.0122x elapsed=0:02:56.35    \nframe=  131 fps=0.7 q=42.2 size=     512KiB time=00:00:02.15 bitrate=1951.0kbits/s speed=0.0122x elapsed=0:02:56.87    \nframe=  132 fps=0.7 q=35.9 size=     512KiB time=00:00:02.16 bitrate=1936.0kbits/s speed=0.0122x elapsed=0:02:57.40    \nframe=  132 fps=0.7 q=35.9 size=     512KiB time=00:00:02.16 bitrate=1936.0kbits/s speed=0.0122x elapsed=0:02:57.94    \nframe=  133 fps=0.7 q=39.6 size=     512KiB time=00:00:02.18 bitrate=1921.2kbits/s speed=0.0122x elapsed=0:02:58.46    \nframe=  134 fps=0.7 q=42.1 size=     512KiB time=00:00:02.20 bitrate=1906.7kbits/s speed=0.0123x elapsed=0:02:58.98    \nframe=  135 fps=0.8 q=42.2 size=     512KiB time=00:00:02.21 bitrate=1892.3kbits/s speed=0.0123x elapsed=0:02:59.50    \nframe=  135 fps=0.7 q=42.2 size=     512KiB time=00:00:02.21 bitrate=1892.3kbits/s speed=0.0123x elapsed=0:03:00.02    \nframe=  136 fps=0.8 q=35.9 size=     512KiB time=00:00:02.23 bitrate=1878.2kbits/s speed=0.0124x elapsed=0:03:00.55    \nframe=  136 fps=0.8 q=35.9 size=     512KiB time=00:00:02.23 bitrate=1878.2kbits/s speed=0.0123x elapsed=0:03:01.05    \nframe=  137 fps=0.8 q=40.5 size=     512KiB time=00:00:02.25 bitrate=1864.3kbits/s speed=0.0124x elapsed=0:03:01.57    \nframe=  139 fps=0.8 q=42.2 size=     512KiB time=00:00:02.28 bitrate=1837.1kbits/s speed=0.0125x elapsed=0:03:02.09    \nframe=  139 fps=0.8 q=42.2 size=     512KiB time=00:00:02.28 bitrate=1837.1kbits/s speed=0.0125x elapsed=0:03:02.60    \nframe=  140 fps=0.8 q=42.3 size=     512KiB time=00:00:02.30 bitrate=1823.8kbits/s speed=0.0126x elapsed=0:03:03.12    \nframe=  140 fps=0.8 q=42.3 size=     512KiB time=00:00:02.30 bitrate=1823.8kbits/s speed=0.0125x elapsed=0:03:03.65    \nframe=  141 fps=0.8 q=36.0 size=     512KiB time=00:00:02.31 bitrate=1810.6kbits/s speed=0.0126x elapsed=0:03:04.18    \nframe=  142 fps=0.8 q=40.3 size=     512KiB time=00:00:02.33 bitrate=1797.7kbits/s speed=0.0126x elapsed=0:03:04.70    \nframe=  143 fps=0.8 q=41.9 size=     512KiB time=00:00:02.35 bitrate=1785.0kbits/s speed=0.0127x elapsed=0:03:05.21    \nframe=  144 fps=0.8 q=42.0 size=     512KiB time=00:00:02.36 bitrate=1772.4kbits/s speed=0.0127x elapsed=0:03:05.73    \nframe=  144 fps=0.8 q=42.0 size=     512KiB time=00:00:02.36 bitrate=1772.4kbits/s speed=0.0127x elapsed=0:03:06.24    \nframe=  145 fps=0.8 q=42.1 size=     512KiB time=00:00:02.38 bitrate=1760.0kbits/s speed=0.0128x elapsed=0:03:06.79    \nframe=  146 fps=0.8 q=35.8 size=     512KiB time=00:00:02.40 bitrate=1747.8kbits/s speed=0.0128x elapsed=0:03:07.31    \nframe=  147 fps=0.8 q=39.1 size=     512KiB time=00:00:02.41 bitrate=1735.7kbits/s speed=0.0129x elapsed=0:03:07.82    \nframe=  148 fps=0.8 q=42.1 size=     512KiB time=00:00:02.43 bitrate=1723.8kbits/s speed=0.0129x elapsed=0:03:08.35    \nframe=  148 fps=0.8 q=42.1 size=     512KiB time=00:00:02.43 bitrate=1723.8kbits/s speed=0.0129x elapsed=0:03:08.87    \nframe=  149 fps=0.8 q=36.0 size=     512KiB time=00:00:02.45 bitrate=1712.1kbits/s speed=0.0129x elapsed=0:03:09.39    \nframe=  150 fps=0.8 q=39.0 size=     512KiB time=00:00:02.46 bitrate=1700.5kbits/s speed=0.013x elapsed=0:03:09.91    \nframe=  150 fps=0.8 q=39.0 size=     512KiB time=00:00:02.46 bitrate=1700.5kbits/s speed=0.013x elapsed=0:03:10.45    \nframe=  151 fps=0.8 q=42.1 size=     512KiB time=00:00:02.48 bitrate=1689.1kbits/s speed=0.013x elapsed=0:03:10.99    \nframe=  151 fps=0.8 q=42.1 size=     512KiB time=00:00:02.48 bitrate=1689.1kbits/s speed=0.013x elapsed=0:03:11.49    \nframe=  153 fps=0.8 q=35.9 size=     512KiB time=00:00:02.51 bitrate=1666.8kbits/s speed=0.0131x elapsed=0:03:12.01    \nframe=  154 fps=0.8 q=38.4 size=     512KiB time=00:00:02.53 bitrate=1655.8kbits/s speed=0.0132x elapsed=0:03:12.52    \nframe=  154 fps=0.8 q=38.4 size=     512KiB time=00:00:02.53 bitrate=1655.8kbits/s speed=0.0131x elapsed=0:03:13.07    \nframe=  154 fps=0.8 q=38.4 size=     512KiB time=00:00:02.53 bitrate=1655.8kbits/s speed=0.0131x elapsed=0:03:13.61    \nframe=  155 fps=0.8 q=41.6 size=     512KiB time=00:00:02.55 bitrate=1645.0kbits/s speed=0.0131x elapsed=0:03:14.14    \nframe=  156 fps=0.8 q=41.9 size=     512KiB time=00:00:02.56 bitrate=1634.3kbits/s speed=0.0132x elapsed=0:03:14.71    \nframe=  156 fps=0.8 q=41.9 size=     512KiB time=00:00:02.56 bitrate=1634.3kbits/s speed=0.0131x elapsed=0:03:15.25    \nframe=  156 fps=0.8 q=41.9 size=     512KiB time=00:00:02.56 bitrate=1634.3kbits/s speed=0.0131x elapsed=0:03:15.78    \nframe=  156 fps=0.8 q=41.9 size=     512KiB time=00:00:02.56 bitrate=1634.3kbits/s speed=0.0131x elapsed=0:03:16.34    \nframe=  156 fps=0.8 q=41.9 size=     512KiB time=00:00:02.56 bitrate=1634.3kbits/s speed=0.013x elapsed=0:03:16.90    \nframe=  157 fps=0.8 q=35.8 size=     512KiB time=00:00:02.58 bitrate=1623.7kbits/s speed=0.0131x elapsed=0:03:17.45    \nframe=  157 fps=0.8 q=35.8 size=     512KiB time=00:00:02.58 bitrate=1623.7kbits/s speed=0.013x elapsed=0:03:17.96    \nframe=  157 fps=0.8 q=35.8 size=     512KiB time=00:00:02.58 bitrate=1623.7kbits/s speed=0.013x elapsed=0:03:18.49    \nframe=  157 fps=0.8 q=35.8 size=     512KiB time=00:00:02.58 bitrate=1623.7kbits/s speed=0.013x elapsed=0:03:19.06    \nframe=  157 fps=0.8 q=35.8 size=     512KiB time=00:00:02.58 bitrate=1623.7kbits/s speed=0.0129x elapsed=0:03:19.58    \nframe=  158 fps=0.8 q=38.9 size=     512KiB time=00:00:02.60 bitrate=1613.3kbits/s speed=0.013x elapsed=0:03:20.14    \nframe=  159 fps=0.8 q=41.7 size=     512KiB time=00:00:02.61 bitrate=1603.1kbits/s speed=0.013x elapsed=0:03:20.68    \nframe=  159 fps=0.8 q=41.7 size=     512KiB time=00:00:02.61 bitrate=1603.1kbits/s speed=0.013x elapsed=0:03:21.21    \nframe=  159 fps=0.8 q=41.7 size=     512KiB time=00:00:02.61 bitrate=1603.1kbits/s speed=0.013x elapsed=0:03:21.76    \nframe=  159 fps=0.8 q=41.7 size=     512KiB time=00:00:02.61 bitrate=1603.1kbits/s speed=0.0129x elapsed=0:03:22.27    \nframe=  160 fps=0.8 q=41.4 size=     512KiB time=00:00:02.63 bitrate=1592.9kbits/s speed=0.013x elapsed=0:03:22.79    \nframe=  160 fps=0.8 q=41.4 size=     512KiB time=00:00:02.63 bitrate=1592.9kbits/s speed=0.0129x elapsed=0:03:23.37    \nframe=  161 fps=0.8 q=35.5 size=     512KiB time=00:00:02.65 bitrate=1582.9kbits/s speed=0.013x elapsed=0:03:23.91    \nframe=  161 fps=0.8 q=35.5 size=     512KiB time=00:00:02.65 bitrate=1582.9kbits/s speed=0.013x elapsed=0:03:24.48    \nframe=  161 fps=0.8 q=35.5 size=     512KiB time=00:00:02.65 bitrate=1582.9kbits/s speed=0.0129x elapsed=0:03:25.01    \nframe=  161 fps=0.8 q=35.5 size=     512KiB time=00:00:02.65 bitrate=1582.9kbits/s speed=0.0129x elapsed=0:03:25.59    \nframe=  161 fps=0.8 q=35.5 size=     512KiB time=00:00:02.65 bitrate=1582.9kbits/s speed=0.0129x elapsed=0:03:26.18    \nframe=  161 fps=0.8 q=35.5 size=     512KiB time=00:00:02.65 bitrate=1582.9kbits/s speed=0.0128x elapsed=0:03:26.75    \nframe=  163 fps=0.8 q=41.3 size=     512KiB time=00:00:02.66 bitrate=1573.0kbits/s speed=0.0129x elapsed=0:03:27.35    \nframe=  163 fps=0.8 q=41.3 size=     512KiB time=00:00:02.68 bitrate=1563.2kbits/s speed=0.0129x elapsed=0:03:27.92    \nframe=  163 fps=0.8 q=41.3 size=     512KiB time=00:00:02.68 bitrate=1563.2kbits/s speed=0.0129x elapsed=0:03:28.46    \nframe=  164 fps=0.8 q=41.5 size=     512KiB time=00:00:02.70 bitrate=1553.6kbits/s speed=0.0129x elapsed=0:03:29.00    \nframe=  164 fps=0.8 q=41.5 size=     512KiB time=00:00:02.70 bitrate=1553.6kbits/s speed=0.0129x elapsed=0:03:29.53    \nframe=  164 fps=0.8 q=41.5 size=     512KiB time=00:00:02.70 bitrate=1553.6kbits/s speed=0.0129x elapsed=0:03:30.09    \nframe=  164 fps=0.8 q=41.5 size=     512KiB time=00:00:02.70 bitrate=1553.6kbits/s speed=0.0128x elapsed=0:03:30.70    \nframe=  164 fps=0.8 q=41.5 size=     512KiB time=00:00:02.70 bitrate=1553.6kbits/s speed=0.0128x elapsed=0:03:31.26    \nframe=  165 fps=0.8 q=35.9 size=     512KiB time=00:00:02.71 bitrate=1544.0kbits/s speed=0.0128x elapsed=0:03:31.82    \nframe=  165 fps=0.8 q=35.9 size=     512KiB time=00:00:02.71 bitrate=1544.0kbits/s speed=0.0128x elapsed=0:03:32.38    \nframe=  165 fps=0.8 q=35.9 size=     512KiB time=00:00:02.71 bitrate=1544.0kbits/s speed=0.0128x elapsed=0:03:32.92    \nframe=  165 fps=0.8 q=35.9 size=     512KiB time=00:00:02.71 bitrate=1544.0kbits/s speed=0.0127x elapsed=0:03:33.47    \nframe=  165 fps=0.8 q=35.9 size=     512KiB time=00:00:02.71 bitrate=1544.0kbits/s speed=0.0127x elapsed=0:03:33.99    \nframe=  166 fps=0.8 q=39.0 size=     512KiB time=00:00:02.73 bitrate=1534.6kbits/s speed=0.0127x elapsed=0:03:34.51    \nframe=  166 fps=0.8 q=39.0 size=     512KiB time=00:00:02.73 bitrate=1534.6kbits/s speed=0.0127x elapsed=0:03:35.03    \nframe=  167 fps=0.8 q=41.4 size=     512KiB time=00:00:02.75 bitrate=1525.3kbits/s speed=0.0128x elapsed=0:03:35.57    \nframe=  168 fps=0.8 q=41.4 size=     512KiB time=00:00:02.76 bitrate=1516.1kbits/s speed=0.0128x elapsed=0:03:36.13    \nframe=  168 fps=0.8 q=41.4 size=     512KiB time=00:00:02.76 bitrate=1516.1kbits/s speed=0.0128x elapsed=0:03:36.67    \nframe=  169 fps=0.8 q=35.9 size=     512KiB time=00:00:02.78 bitrate=1507.1kbits/s speed=0.0128x elapsed=0:03:37.20    \nframe=  169 fps=0.8 q=35.9 size=     512KiB time=00:00:02.78 bitrate=1507.1kbits/s speed=0.0128x elapsed=0:03:37.77    \nframe=  169 fps=0.8 q=35.9 size=     512KiB time=00:00:02.78 bitrate=1507.1kbits/s speed=0.0127x elapsed=0:03:38.34    \nframe=  169 fps=0.8 q=35.9 size=     512KiB time=00:00:02.78 bitrate=1507.1kbits/s speed=0.0127x elapsed=0:03:38.87    \nframe=  169 fps=0.8 q=35.9 size=     512KiB time=00:00:02.78 bitrate=1507.1kbits/s speed=0.0127x elapsed=0:03:39.38    \nframe=  170 fps=0.8 q=39.0 size=     512KiB time=00:00:02.80 bitrate=1498.1kbits/s speed=0.0127x elapsed=0:03:39.96    \nframe=  170 fps=0.8 q=39.0 size=     512KiB time=00:00:02.80 bitrate=1498.1kbits/s speed=0.0127x elapsed=0:03:40.48    \nframe=  170 fps=0.8 q=39.0 size=     512KiB time=00:00:02.80 bitrate=1498.1kbits/s speed=0.0127x elapsed=0:03:41.02    \nframe=  170 fps=0.8 q=39.0 size=     512KiB time=00:00:02.80 bitrate=1498.1kbits/s speed=0.0126x elapsed=0:03:41.55    \nframe=  170 fps=0.8 q=39.0 size=     512KiB time=00:00:02.80 bitrate=1498.1kbits/s speed=0.0126x elapsed=0:03:42.12    \nframe=  170 fps=0.8 q=39.0 size=     512KiB time=00:00:02.80 bitrate=1498.1kbits/s speed=0.0126x elapsed=0:03:42.77    \nframe=  170 fps=0.8 q=39.0 size=     512KiB time=00:00:02.80 bitrate=1498.1kbits/s speed=0.0125x elapsed=0:03:43.36    \nframe=  171 fps=0.8 q=41.2 size=     512KiB time=00:00:02.81 bitrate=1489.2kbits/s speed=0.0126x elapsed=0:03:43.98    \nframe=  171 fps=0.8 q=41.2 size=     512KiB time=00:00:02.81 bitrate=1489.2kbits/s speed=0.0125x elapsed=0:03:44.61    \nframe=  171 fps=0.8 q=41.2 size=     512KiB time=00:00:02.81 bitrate=1489.2kbits/s speed=0.0125x elapsed=0:03:45.24    \nframe=  172 fps=0.8 q=41.4 size=     512KiB time=00:00:02.83 bitrate=1480.5kbits/s speed=0.0125x elapsed=0:03:45.85    \nframe=  172 fps=0.8 q=41.4 size=     512KiB time=00:00:02.83 bitrate=1480.5kbits/s speed=0.0125x elapsed=0:03:46.43    \nframe=  172 fps=0.8 q=41.4 size=     512KiB time=00:00:02.83 bitrate=1480.5kbits/s speed=0.0125x elapsed=0:03:47.02    \nframe=  172 fps=0.8 q=41.4 size=     512KiB time=00:00:02.83 bitrate=1480.5kbits/s speed=0.0125x elapsed=0:03:47.57    \nframe=  172 fps=0.8 q=41.4 size=     512KiB time=00:00:02.83 bitrate=1480.5kbits/s speed=0.0124x elapsed=0:03:48.17    \nframe=  172 fps=0.8 q=41.4 size=     512KiB time=00:00:02.83 bitrate=1480.5kbits/s speed=0.0124x elapsed=0:03:48.80    \nframe=  172 fps=0.7 q=41.4 size=     512KiB time=00:00:02.83 bitrate=1480.5kbits/s speed=0.0123x elapsed=0:03:49.48    \nframe=  172 fps=0.7 q=41.4 size=     512KiB time=00:00:02.83 bitrate=1480.5kbits/s speed=0.0123x elapsed=0:03:50.12    \nframe=  172 fps=0.7 q=41.4 size=     512KiB time=00:00:02.83 bitrate=1480.5kbits/s speed=0.0123x elapsed=0:03:50.72    \nframe=  172 fps=0.7 q=41.4 size=     512KiB time=00:00:02.83 bitrate=1480.5kbits/s speed=0.0123x elapsed=0:03:51.27    \nframe=  172 fps=0.7 q=41.4 size=     512KiB time=00:00:02.83 bitrate=1480.5kbits/s speed=0.0122x elapsed=0:03:51.87    \nframe=  172 fps=0.7 q=41.4 size=     512KiB time=00:00:02.83 bitrate=1480.5kbits/s speed=0.0122x elapsed=0:03:52.43    \nframe=  173 fps=0.7 q=36.5 size=     512KiB time=00:00:02.85 bitrate=1471.8kbits/s speed=0.0122x elapsed=0:03:53.00    \nframe=  173 fps=0.7 q=36.5 size=     512KiB time=00:00:02.85 bitrate=1471.8kbits/s speed=0.0122x elapsed=0:03:53.54    \nframe=  173 fps=0.7 q=36.5 size=     512KiB time=00:00:02.85 bitrate=1471.8kbits/s speed=0.0122x elapsed=0:03:54.11    \nframe=  173 fps=0.7 q=36.5 size=     512KiB time=00:00:02.85 bitrate=1471.8kbits/s speed=0.0121x elapsed=0:03:54.67    \nframe=  173 fps=0.7 q=36.5 size=     512KiB time=00:00:02.85 bitrate=1471.8kbits/s speed=0.0121x elapsed=0:03:55.22    \nframe=  173 fps=0.7 q=36.5 size=     512KiB time=00:00:02.85 bitrate=1471.8kbits/s speed=0.0121x elapsed=0:03:55.76    \nframe=  175 fps=0.7 q=41.4 size=     512KiB time=00:00:02.88 bitrate=1454.8kbits/s speed=0.0122x elapsed=0:03:56.28    \nframe=  176 fps=0.7 q=41.3 size=     512KiB time=00:00:02.90 bitrate=1446.4kbits/s speed=0.0122x elapsed=0:03:56.81    \nframe=  176 fps=0.7 q=41.3 size=     512KiB time=00:00:02.90 bitrate=1446.4kbits/s speed=0.0122x elapsed=0:03:57.34    \nframe=  176 fps=0.7 q=41.3 size=     512KiB time=00:00:02.90 bitrate=1446.4kbits/s speed=0.0122x elapsed=0:03:57.88    \nframe=  176 fps=0.7 q=41.3 size=     512KiB time=00:00:02.90 bitrate=1446.4kbits/s speed=0.0122x elapsed=0:03:58.42    \nframe=  176 fps=0.7 q=41.3 size=     512KiB time=00:00:02.90 bitrate=1446.4kbits/s speed=0.0121x elapsed=0:03:58.98    \nframe=  177 fps=0.7 q=36.4 size=     512KiB time=00:00:02.91 bitrate=1438.2kbits/s speed=0.0122x elapsed=0:03:59.49    \nframe=  177 fps=0.7 q=36.4 size=     512KiB time=00:00:02.91 bitrate=1438.2kbits/s speed=0.0122x elapsed=0:04:00.04    \nframe=  178 fps=0.7 q=38.8 size=     512KiB time=00:00:02.93 bitrate=1430.0kbits/s speed=0.0122x elapsed=0:04:00.55    \nframe=  179 fps=0.7 q=41.5 size=     512KiB time=00:00:02.95 bitrate=1421.9kbits/s speed=0.0122x elapsed=0:04:01.09    \nframe=  179 fps=0.7 q=41.5 size=     512KiB time=00:00:02.95 bitrate=1421.9kbits/s speed=0.0122x elapsed=0:04:01.72    \nframe=  179 fps=0.7 q=41.5 size=     512KiB time=00:00:02.95 bitrate=1421.9kbits/s speed=0.0122x elapsed=0:04:02.29    \nframe=  179 fps=0.7 q=41.5 size=     512KiB time=00:00:02.95 bitrate=1421.9kbits/s speed=0.0121x elapsed=0:04:02.86    \nframe=  180 fps=0.7 q=41.4 size=     512KiB time=00:00:02.96 bitrate=1413.9kbits/s speed=0.0122x elapsed=0:04:03.43    \nframe=  180 fps=0.7 q=41.4 size=     512KiB time=00:00:02.96 bitrate=1413.9kbits/s speed=0.0122x elapsed=0:04:03.96    \nframe=  181 fps=0.7 q=36.9 size=     512KiB time=00:00:02.98 bitrate=1406.0kbits/s speed=0.0122x elapsed=0:04:04.54    \nframe=  181 fps=0.7 q=36.9 size=     512KiB time=00:00:02.98 bitrate=1406.0kbits/s speed=0.0122x elapsed=0:04:05.13    \nframe=  181 fps=0.7 q=36.9 size=     512KiB time=00:00:02.98 bitrate=1406.0kbits/s speed=0.0121x elapsed=0:04:05.72    \nframe=  181 fps=0.7 q=36.9 size=     512KiB time=00:00:02.98 bitrate=1406.0kbits/s speed=0.0121x elapsed=0:04:06.35    \nframe=  181 fps=0.7 q=36.9 size=     512KiB time=00:00:02.98 bitrate=1406.0kbits/s speed=0.0121x elapsed=0:04:06.87    \nframe=  182 fps=0.7 q=39.2 size=     512KiB time=00:00:03.00 bitrate=1398.2kbits/s speed=0.0121x elapsed=0:04:07.44    \nframe=  182 fps=0.7 q=39.2 size=     512KiB time=00:00:03.00 bitrate=1398.2kbits/s speed=0.0121x elapsed=0:04:08.00    \nframe=  182 fps=0.7 q=39.2 size=     512KiB time=00:00:03.00 bitrate=1398.2kbits/s speed=0.0121x elapsed=0:04:08.57    \nframe=  182 fps=0.7 q=39.2 size=     512KiB time=00:00:03.00 bitrate=1398.2kbits/s speed=0.012x elapsed=0:04:09.11    \nframe=  184 fps=0.7 q=41.4 size=     512KiB time=00:00:03.03 bitrate=1382.9kbits/s speed=0.0121x elapsed=0:04:09.65    \nframe=  185 fps=0.7 q=36.3 size=     512KiB time=00:00:03.05 bitrate=1375.3kbits/s speed=0.0122x elapsed=0:04:10.20    \nframe=  185 fps=0.7 q=36.3 size=     512KiB time=00:00:03.05 bitrate=1375.3kbits/s speed=0.0122x elapsed=0:04:10.79    \nframe=  185 fps=0.7 q=36.3 size=     512KiB time=00:00:03.05 bitrate=1375.3kbits/s speed=0.0121x elapsed=0:04:11.34    \nframe=  185 fps=0.7 q=36.3 size=     512KiB time=00:00:03.05 bitrate=1375.3kbits/s speed=0.0121x elapsed=0:04:11.87    \nframe=  185 fps=0.7 q=36.3 size=     512KiB time=00:00:03.05 bitrate=1375.3kbits/s speed=0.0121x elapsed=0:04:12.39    \nframe=  185 fps=0.7 q=36.3 size=     512KiB time=00:00:03.05 bitrate=1375.3kbits/s speed=0.0121x elapsed=0:04:12.90    \nframe=  185 fps=0.7 q=36.3 size=     512KiB time=00:00:03.05 bitrate=1375.3kbits/s speed=0.012x elapsed=0:04:13.43    \nframe=  185 fps=0.7 q=36.3 size=     512KiB time=00:00:03.05 bitrate=1375.3kbits/s speed=0.012x elapsed=0:04:13.97    \nframe=  186 fps=0.7 q=39.2 size=     768KiB time=00:00:03.06 bitrate=2051.7kbits/s speed=0.012x elapsed=0:04:14.54    \nframe=  186 fps=0.7 q=39.2 size=     768KiB time=00:00:03.06 bitrate=2051.7kbits/s speed=0.012x elapsed=0:04:15.10    \nframe=  186 fps=0.7 q=39.2 size=     768KiB time=00:00:03.06 bitrate=2051.7kbits/s speed=0.012x elapsed=0:04:15.66    \nframe=  188 fps=0.7 q=41.3 size=     768KiB time=00:00:03.10 bitrate=2029.6kbits/s speed=0.0121x elapsed=0:04:16.35    \nframe=  188 fps=0.7 q=41.3 size=     768KiB time=00:00:03.10 bitrate=2029.6kbits/s speed=0.0121x elapsed=0:04:16.93    \nframe=  188 fps=0.7 q=41.3 size=     768KiB time=00:00:03.10 bitrate=2029.6kbits/s speed=0.012x elapsed=0:04:17.50    \nframe=  188 fps=0.7 q=41.3 size=     768KiB time=00:00:03.10 bitrate=2029.6kbits/s speed=0.012x elapsed=0:04:18.09    \nframe=  188 fps=0.7 q=41.3 size=     768KiB time=00:00:03.10 bitrate=2029.6kbits/s speed=0.012x elapsed=0:04:18.68    \nframe=  189 fps=0.7 q=36.3 size=     768KiB time=00:00:03.11 bitrate=2018.8kbits/s speed=0.012x elapsed=0:04:19.35    \nframe=  189 fps=0.7 q=36.3 size=     768KiB time=00:00:03.11 bitrate=2018.8kbits/s speed=0.012x elapsed=0:04:19.91    \nframe=  189 fps=0.7 q=36.3 size=     768KiB time=00:00:03.11 bitrate=2018.8kbits/s speed=0.012x elapsed=0:04:20.54    \nframe=  189 fps=0.7 q=36.3 size=     768KiB time=00:00:03.11 bitrate=2018.8kbits/s speed=0.0119x elapsed=0:04:21.15    \nframe=  189 fps=0.7 q=36.3 size=     768KiB time=00:00:03.11 bitrate=2018.8kbits/s speed=0.0119x elapsed=0:04:21.77    \nframe=  189 fps=0.7 q=36.3 size=     768KiB time=00:00:03.11 bitrate=2018.8kbits/s speed=0.0119x elapsed=0:04:22.36    \nframe=  190 fps=0.7 q=39.4 size=     768KiB time=00:00:03.13 bitrate=2008.0kbits/s speed=0.0119x elapsed=0:04:22.94    \nframe=  190 fps=0.7 q=39.4 size=     768KiB time=00:00:03.13 bitrate=2008.0kbits/s speed=0.0119x elapsed=0:04:23.48    \nframe=  190 fps=0.7 q=39.4 size=     768KiB time=00:00:03.13 bitrate=2008.0kbits/s speed=0.0119x elapsed=0:04:24.02    \nframe=  190 fps=0.7 q=39.4 size=     768KiB time=00:00:03.13 bitrate=2008.0kbits/s speed=0.0118x elapsed=0:04:24.55    \nframe=  192 fps=0.7 q=41.4 size=     768KiB time=00:00:03.16 bitrate=1986.9kbits/s speed=0.0119x elapsed=0:04:25.07    \nframe=  192 fps=0.7 q=41.4 size=     768KiB time=00:00:03.16 bitrate=1986.9kbits/s speed=0.0119x elapsed=0:04:25.60    \nframe=  192 fps=0.7 q=41.4 size=     768KiB time=00:00:03.16 bitrate=1986.9kbits/s speed=0.0119x elapsed=0:04:26.21    \nframe=  193 fps=0.7 q=36.2 size=     768KiB time=00:00:03.18 bitrate=1976.5kbits/s speed=0.0119x elapsed=0:04:26.82    \nframe=  193 fps=0.7 q=36.2 size=     768KiB time=00:00:03.18 bitrate=1976.5kbits/s speed=0.0119x elapsed=0:04:27.39    \nframe=  193 fps=0.7 q=36.2 size=     768KiB time=00:00:03.18 bitrate=1976.5kbits/s speed=0.0119x elapsed=0:04:28.06    \nframe=  193 fps=0.7 q=36.2 size=     768KiB time=00:00:03.18 bitrate=1976.5kbits/s speed=0.0119x elapsed=0:04:28.59    \nframe=  194 fps=0.7 q=40.0 size=     768KiB time=00:00:03.20 bitrate=1966.2kbits/s speed=0.0119x elapsed=0:04:29.12    \nframe=  195 fps=0.7 q=41.3 size=     768KiB time=00:00:03.21 bitrate=1956.0kbits/s speed=0.0119x elapsed=0:04:29.64    \nframe=  195 fps=0.7 q=41.3 size=     768KiB time=00:00:03.21 bitrate=1956.0kbits/s speed=0.0119x elapsed=0:04:30.16    \nframe=  195 fps=0.7 q=41.3 size=     768KiB time=00:00:03.21 bitrate=1956.0kbits/s speed=0.0119x elapsed=0:04:30.72    \nframe=  196 fps=0.7 q=41.3 size=     768KiB time=00:00:03.23 bitrate=1945.9kbits/s speed=0.0119x elapsed=0:04:31.26    \nframe=  196 fps=0.7 q=41.3 size=     768KiB time=00:00:03.23 bitrate=1945.9kbits/s speed=0.0119x elapsed=0:04:31.84    \nframe=  198 fps=0.7 q=36.7 size=     768KiB time=00:00:03.26 bitrate=1926.1kbits/s speed=0.012x elapsed=0:04:32.40    \nframe=  198 fps=0.7 q=36.7 size=     768KiB time=00:00:03.26 bitrate=1926.1kbits/s speed=0.012x elapsed=0:04:32.96    \nframe=  199 fps=0.7 q=39.0 size=     768KiB time=00:00:03.28 bitrate=1916.3kbits/s speed=0.012x elapsed=0:04:33.55    \nframe=  199 fps=0.7 q=39.0 size=     768KiB time=00:00:03.28 bitrate=1916.3kbits/s speed=0.012x elapsed=0:04:34.12    \nframe=  199 fps=0.7 q=39.0 size=     768KiB time=00:00:03.28 bitrate=1916.3kbits/s speed=0.0119x elapsed=0:04:34.76    \nframe=  199 fps=0.7 q=39.0 size=     768KiB time=00:00:03.28 bitrate=1916.3kbits/s speed=0.0119x elapsed=0:04:35.31    \nframe=  199 fps=0.7 q=39.0 size=     768KiB time=00:00:03.28 bitrate=1916.3kbits/s speed=0.0119x elapsed=0:04:35.87    \nframe=  200 fps=0.7 q=41.4 size=     768KiB time=00:00:03.30 bitrate=1906.6kbits/s speed=0.0119x elapsed=0:04:36.44    \nframe=  201 fps=0.7 q=41.5 size=     768KiB time=00:00:03.31 bitrate=1897.0kbits/s speed=0.012x elapsed=0:04:36.97    \nframe=  202 fps=0.7 q=36.8 size=     768KiB time=00:00:03.33 bitrate=1887.5kbits/s speed=0.012x elapsed=0:04:37.51    \nframe=  203 fps=0.7 q=39.6 size=     768KiB time=00:00:03.35 bitrate=1878.2kbits/s speed=0.012x elapsed=0:04:38.05    \nframe=  203 fps=0.7 q=39.6 size=     768KiB time=00:00:03.35 bitrate=1878.2kbits/s speed=0.012x elapsed=0:04:38.59    \nframe=  203 fps=0.7 q=39.6 size=     768KiB time=00:00:03.35 bitrate=1878.2kbits/s speed=0.012x elapsed=0:04:39.10    \nframe=  203 fps=0.7 q=39.6 size=     768KiB time=00:00:03.35 bitrate=1878.2kbits/s speed=0.012x elapsed=0:04:39.71    \nframe=  203 fps=0.7 q=39.6 size=     768KiB time=00:00:03.35 bitrate=1878.2kbits/s speed=0.0119x elapsed=0:04:40.33    \nframe=  204 fps=0.7 q=41.5 size=     768KiB time=00:00:03.36 bitrate=1868.9kbits/s speed=0.012x elapsed=0:04:40.96    \nframe=  204 fps=0.7 q=41.5 size=     768KiB time=00:00:03.36 bitrate=1868.9kbits/s speed=0.012x elapsed=0:04:41.49    \nframe=  204 fps=0.7 q=41.5 size=     768KiB time=00:00:03.36 bitrate=1868.9kbits/s speed=0.0119x elapsed=0:04:42.02    \nframe=  205 fps=0.7 q=36.8 size=     768KiB time=00:00:03.38 bitrate=1859.6kbits/s speed=0.012x elapsed=0:04:42.59    \nframe=  205 fps=0.7 q=36.8 size=     768KiB time=00:00:03.38 bitrate=1859.6kbits/s speed=0.0119x elapsed=0:04:43.19    \nframe=  205 fps=0.7 q=36.8 size=     768KiB time=00:00:03.38 bitrate=1859.6kbits/s speed=0.0119x elapsed=0:04:43.72    \nframe=  206 fps=0.7 q=40.3 size=     768KiB time=00:00:03.40 bitrate=1850.5kbits/s speed=0.012x elapsed=0:04:44.25    \nframe=  206 fps=0.7 q=40.3 size=     768KiB time=00:00:03.40 bitrate=1850.5kbits/s speed=0.0119x elapsed=0:04:44.84    \nframe=  206 fps=0.7 q=40.3 size=     768KiB time=00:00:03.40 bitrate=1850.5kbits/s speed=0.0119x elapsed=0:04:45.39    \nframe=  206 fps=0.7 q=40.3 size=     768KiB time=00:00:03.40 bitrate=1850.5kbits/s speed=0.0119x elapsed=0:04:45.92    \nframe=  207 fps=0.7 q=42.1 size=     768KiB time=00:00:03.41 bitrate=1841.5kbits/s speed=0.0119x elapsed=0:04:46.51    \nframe=  208 fps=0.7 q=42.1 size=     768KiB time=00:00:03.43 bitrate=1832.6kbits/s speed=0.012x elapsed=0:04:47.07    \nframe=  208 fps=0.7 q=42.1 size=     768KiB time=00:00:03.43 bitrate=1832.6kbits/s speed=0.0119x elapsed=0:04:47.63    \nframe=  209 fps=0.7 q=37.3 size=     768KiB time=00:00:03.45 bitrate=1823.7kbits/s speed=0.012x elapsed=0:04:48.18    \nframe=  209 fps=0.7 q=37.3 size=     768KiB time=00:00:03.45 bitrate=1823.7kbits/s speed=0.0119x elapsed=0:04:48.72    \nframe=  209 fps=0.7 q=37.3 size=     768KiB time=00:00:03.45 bitrate=1823.7kbits/s speed=0.0119x elapsed=0:04:49.30    \nframe=  209 fps=0.7 q=37.3 size=     768KiB time=00:00:03.45 bitrate=1823.7kbits/s speed=0.0119x elapsed=0:04:49.94    \nframe=  209 fps=0.7 q=37.3 size=     768KiB time=00:00:03.45 bitrate=1823.7kbits/s speed=0.0119x elapsed=0:04:50.56    \nframe=  209 fps=0.7 q=37.3 size=     768KiB time=00:00:03.45 bitrate=1823.7kbits/s speed=0.0119x elapsed=0:04:51.10    \nframe=  209 fps=0.7 q=37.3 size=     768KiB time=00:00:03.45 bitrate=1823.7kbits/s speed=0.0118x elapsed=0:04:51.71    \nframe=  209 fps=0.7 q=37.3 size=     768KiB time=00:00:03.45 bitrate=1823.7kbits/s speed=0.0118x elapsed=0:04:52.30    \nframe=  209 fps=0.7 q=37.3 size=     768KiB time=00:00:03.45 bitrate=1823.7kbits/s speed=0.0118x elapsed=0:04:52.85    \nframe=  210 fps=0.7 q=41.1 size=     768KiB time=00:00:03.46 bitrate=1814.9kbits/s speed=0.0118x elapsed=0:04:53.47    \nframe=  210 fps=0.7 q=41.1 size=     768KiB time=00:00:03.46 bitrate=1814.9kbits/s speed=0.0118x elapsed=0:04:54.05    \nframe=  210 fps=0.7 q=41.1 size=     768KiB time=00:00:03.46 bitrate=1814.9kbits/s speed=0.0118x elapsed=0:04:54.71    \nframe=  210 fps=0.7 q=41.1 size=     768KiB time=00:00:03.46 bitrate=1814.9kbits/s speed=0.0117x elapsed=0:04:55.29    \nframe=  210 fps=0.7 q=41.1 size=     768KiB time=00:00:03.46 bitrate=1814.9kbits/s speed=0.0117x elapsed=0:04:55.87    \nframe=  210 fps=0.7 q=41.1 size=     768KiB time=00:00:03.46 bitrate=1814.9kbits/s speed=0.0117x elapsed=0:04:56.45    \nframe=  212 fps=0.7 q=43.1 size=     768KiB time=00:00:03.50 bitrate=1797.7kbits/s speed=0.0118x elapsed=0:04:56.98    \nframe=  212 fps=0.7 q=43.1 size=     768KiB time=00:00:03.50 bitrate=1797.7kbits/s speed=0.0118x elapsed=0:04:57.52    \nframe=  213 fps=0.7 q=38.1 size=     768KiB time=00:00:03.51 bitrate=1789.1kbits/s speed=0.0118x elapsed=0:04:58.04    \nframe=  213 fps=0.7 q=38.1 size=     768KiB time=00:00:03.51 bitrate=1789.1kbits/s speed=0.0118x elapsed=0:04:58.56    \nframe=  213 fps=0.7 q=38.1 size=     768KiB time=00:00:03.51 bitrate=1789.1kbits/s speed=0.0118x elapsed=0:04:59.07    \nframe=  213 fps=0.7 q=38.1 size=     768KiB time=00:00:03.51 bitrate=1789.1kbits/s speed=0.0117x elapsed=0:04:59.59    \nframe=  214 fps=0.7 q=41.7 size=     768KiB time=00:00:03.53 bitrate=1780.7kbits/s speed=0.0118x elapsed=0:05:00.13    \nframe=  214 fps=0.7 q=41.7 size=     768KiB time=00:00:03.53 bitrate=1780.7kbits/s speed=0.0118x elapsed=0:05:00.65    \nframe=  215 fps=0.7 q=43.1 size=     768KiB time=00:00:03.55 bitrate=1772.3kbits/s speed=0.0118x elapsed=0:05:01.18    \nframe=  215 fps=0.7 q=43.1 size=     768KiB time=00:00:03.55 bitrate=1772.3kbits/s speed=0.0118x elapsed=0:05:01.70    \nframe=  216 fps=0.7 q=43.4 size=     768KiB time=00:00:03.56 bitrate=1764.1kbits/s speed=0.0118x elapsed=0:05:02.27    \nframe=  216 fps=0.7 q=43.4 size=     768KiB time=00:00:03.56 bitrate=1764.1kbits/s speed=0.0118x elapsed=0:05:02.87    \nframe=  216 fps=0.7 q=43.4 size=     768KiB time=00:00:03.56 bitrate=1764.1kbits/s speed=0.0118x elapsed=0:05:03.47    \nframe=  216 fps=0.7 q=43.4 size=     768KiB time=00:00:03.56 bitrate=1764.1kbits/s speed=0.0117x elapsed=0:05:04.02    \nframe=  216 fps=0.7 q=43.4 size=     768KiB time=00:00:03.56 bitrate=1764.1kbits/s speed=0.0117x elapsed=0:05:04.59    \nframe=  216 fps=0.7 q=43.4 size=     768KiB time=00:00:03.56 bitrate=1764.1kbits/s speed=0.0117x elapsed=0:05:05.12    \nframe=  217 fps=0.7 q=39.0 size=     768KiB time=00:00:03.58 bitrate=1755.9kbits/s speed=0.0117x elapsed=0:05:05.73    \nframe=  217 fps=0.7 q=39.0 size=     768KiB time=00:00:03.58 bitrate=1755.9kbits/s speed=0.0117x elapsed=0:05:06.37    \nframe=  218 fps=0.7 q=42.4 size=     768KiB time=00:00:03.60 bitrate=1747.7kbits/s speed=0.0117x elapsed=0:05:06.89    \nframe=  218 fps=0.7 q=42.4 size=     768KiB time=00:00:03.60 bitrate=1747.7kbits/s speed=0.0117x elapsed=0:05:07.48    \nframe=  218 fps=0.7 q=42.4 size=     768KiB time=00:00:03.60 bitrate=1747.7kbits/s speed=0.0117x elapsed=0:05:08.05    \nframe=  218 fps=0.7 q=42.4 size=     768KiB time=00:00:03.60 bitrate=1747.7kbits/s speed=0.0117x elapsed=0:05:08.59    \nframe=  218 fps=0.7 q=42.4 size=     768KiB time=00:00:03.60 bitrate=1747.7kbits/s speed=0.0116x elapsed=0:05:09.12    \nframe=  218 fps=0.7 q=42.4 size=     768KiB time=00:00:03.60 bitrate=1747.7kbits/s speed=0.0116x elapsed=0:05:09.69    \nframe=  219 fps=0.7 q=44.0 size=     768KiB time=00:00:03.61 bitrate=1739.7kbits/s speed=0.0117x elapsed=0:05:10.31    \nframe=  219 fps=0.7 q=44.0 size=     768KiB time=00:00:03.61 bitrate=1739.7kbits/s speed=0.0116x elapsed=0:05:10.93    \nframe=  220 fps=0.7 q=44.2 size=     768KiB time=00:00:03.63 bitrate=1731.7kbits/s speed=0.0117x elapsed=0:05:11.62    \nframe=  220 fps=0.7 q=44.2 size=     768KiB time=00:00:03.63 bitrate=1731.7kbits/s speed=0.0116x elapsed=0:05:12.22    \nframe=  220 fps=0.7 q=44.2 size=     768KiB time=00:00:03.63 bitrate=1731.7kbits/s speed=0.0116x elapsed=0:05:12.88    \nframe=  222 fps=0.7 q=43.1 size=     768KiB time=00:00:03.66 bitrate=1715.9kbits/s speed=0.0117x elapsed=0:05:13.44    \nframe=  222 fps=0.7 q=43.1 size=     768KiB time=00:00:03.66 bitrate=1715.9kbits/s speed=0.0117x elapsed=0:05:14.01    \nframe=  222 fps=0.7 q=43.1 size=     768KiB time=00:00:03.66 bitrate=1715.9kbits/s speed=0.0117x elapsed=0:05:14.54    \nframe=  223 fps=0.7 q=44.4 size=     768KiB time=00:00:03.68 bitrate=1708.2kbits/s speed=0.0117x elapsed=0:05:15.18    \nframe=  223 fps=0.7 q=44.4 size=     768KiB time=00:00:03.68 bitrate=1708.2kbits/s speed=0.0117x elapsed=0:05:15.73    \nframe=  223 fps=0.7 q=44.4 size=     768KiB time=00:00:03.68 bitrate=1708.2kbits/s speed=0.0116x elapsed=0:05:16.33    \nframe=  223 fps=0.7 q=44.4 size=     768KiB time=00:00:03.68 bitrate=1708.2kbits/s speed=0.0116x elapsed=0:05:16.92    \nframe=  224 fps=0.7 q=44.9 size=     768KiB time=00:00:03.68 bitrate=1708.2kbits/s speed=0.0116x elapsed=0:05:17.55    \nframe=  224 fps=0.7 q=44.9 size=     768KiB time=00:00:03.70 bitrate=1700.5kbits/s speed=0.0116x elapsed=0:05:18.21    \nframe=  225 fps=0.7 q=40.2 size=     768KiB time=00:00:03.71 bitrate=1692.9kbits/s speed=0.0117x elapsed=0:05:18.78    \nframe=  225 fps=0.7 q=40.2 size=     768KiB time=00:00:03.71 bitrate=1692.9kbits/s speed=0.0116x elapsed=0:05:19.41    \nframe=  225 fps=0.7 q=40.2 size=     768KiB time=00:00:03.71 bitrate=1692.9kbits/s speed=0.0116x elapsed=0:05:19.98    \nframe=  225 fps=0.7 q=40.2 size=     768KiB time=00:00:03.71 bitrate=1692.9kbits/s speed=0.0116x elapsed=0:05:20.58    \nframe=  226 fps=0.7 q=43.2 size=     768KiB time=00:00:03.73 bitrate=1685.3kbits/s speed=0.0116x elapsed=0:05:21.12    \nframe=  227 fps=0.7 q=44.9 size=     768KiB time=00:00:03.75 bitrate=1677.8kbits/s speed=0.0117x elapsed=0:05:21.65    \nframe=  227 fps=0.7 q=44.9 size=     768KiB time=00:00:03.75 bitrate=1677.8kbits/s speed=0.0116x elapsed=0:05:22.21    \nframe=  227 fps=0.7 q=44.9 size=     768KiB time=00:00:03.75 bitrate=1677.8kbits/s speed=0.0116x elapsed=0:05:22.87    \nframe=  227 fps=0.7 q=44.9 size=     768KiB time=00:00:03.75 bitrate=1677.8kbits/s speed=0.0116x elapsed=0:05:23.50    \nframe=  227 fps=0.7 q=44.9 size=     768KiB time=00:00:03.75 bitrate=1677.8kbits/s speed=0.0116x elapsed=0:05:24.08    \nframe=  227 fps=0.7 q=44.9 size=     768KiB time=00:00:03.75 bitrate=1677.8kbits/s speed=0.0115x elapsed=0:05:24.69    \nframe=  228 fps=0.7 q=40.4 size=     768KiB time=00:00:03.76 bitrate=1670.4kbits/s speed=0.0116x elapsed=0:05:25.27    \nframe=  229 fps=0.7 q=44.2 size=     768KiB time=00:00:03.78 bitrate=1663.0kbits/s speed=0.0116x elapsed=0:05:25.81    \nframe=  229 fps=0.7 q=44.2 size=     768KiB time=00:00:03.78 bitrate=1663.0kbits/s speed=0.0116x elapsed=0:05:26.37    \nframe=  229 fps=0.7 q=44.2 size=     768KiB time=00:00:03.78 bitrate=1663.0kbits/s speed=0.0116x elapsed=0:05:26.99    \nframe=  229 fps=0.7 q=44.2 size=     768KiB time=00:00:03.78 bitrate=1663.0kbits/s speed=0.0115x elapsed=0:05:27.58    \nframe=  229 fps=0.7 q=44.2 size=     768KiB time=00:00:03.78 bitrate=1663.0kbits/s speed=0.0115x elapsed=0:05:28.13    \nframe=  229 fps=0.7 q=44.2 size=     768KiB time=00:00:03.78 bitrate=1663.0kbits/s speed=0.0115x elapsed=0:05:28.64    \nframe=  229 fps=0.7 q=44.2 size=     768KiB time=00:00:03.78 bitrate=1663.0kbits/s speed=0.0115x elapsed=0:05:29.25    \nframe=  230 fps=0.7 q=45.1 size=     768KiB time=00:00:03.80 bitrate=1655.7kbits/s speed=0.0115x elapsed=0:05:29.82    \nframe=  230 fps=0.7 q=45.1 size=     768KiB time=00:00:03.80 bitrate=1655.7kbits/s speed=0.0115x elapsed=0:05:30.44    \nframe=  231 fps=0.7 q=40.3 size=     768KiB time=00:00:03.80 bitrate=1655.7kbits/s speed=0.0115x elapsed=0:05:30.99    \nframe=  231 fps=0.7 q=40.3 size=     768KiB time=00:00:03.81 bitrate=1648.5kbits/s speed=0.0115x elapsed=0:05:31.58    \nframe=  232 fps=0.7 q=43.8 size=     768KiB time=00:00:03.83 bitrate=1641.3kbits/s speed=0.0115x elapsed=0:05:32.23    \nframe=  232 fps=0.7 q=43.8 size=     768KiB time=00:00:03.83 bitrate=1641.3kbits/s speed=0.0115x elapsed=0:05:32.77    \nframe=  232 fps=0.7 q=43.8 size=     768KiB time=00:00:03.83 bitrate=1641.3kbits/s speed=0.0115x elapsed=0:05:33.39    \nframe=  232 fps=0.7 q=43.8 size=     768KiB time=00:00:03.83 bitrate=1641.3kbits/s speed=0.0115x elapsed=0:05:33.98    \nframe=  232 fps=0.7 q=43.8 size=     768KiB time=00:00:03.83 bitrate=1641.3kbits/s speed=0.0115x elapsed=0:05:34.51    \nframe=  233 fps=0.7 q=45.1 size=     768KiB time=00:00:03.85 bitrate=1634.2kbits/s speed=0.0115x elapsed=0:05:35.05    \nframe=  234 fps=0.7 q=39.8 size=     768KiB time=00:00:03.86 bitrate=1627.2kbits/s speed=0.0115x elapsed=0:05:35.60    \nframe=  234 fps=0.7 q=39.8 size=     768KiB time=00:00:03.86 bitrate=1627.2kbits/s speed=0.0115x elapsed=0:05:36.17    \nframe=  235 fps=0.7 q=43.9 size=     768KiB time=00:00:03.88 bitrate=1620.2kbits/s speed=0.0115x elapsed=0:05:36.72    \nframe=  235 fps=0.7 q=43.9 size=     768KiB time=00:00:03.88 bitrate=1620.2kbits/s speed=0.0115x elapsed=0:05:37.30    \nframe=  235 fps=0.7 q=43.9 size=     768KiB time=00:00:03.88 bitrate=1620.2kbits/s speed=0.0115x elapsed=0:05:37.87    \nframe=  236 fps=0.7 q=45.0 size=     768KiB time=00:00:03.90 bitrate=1613.3kbits/s speed=0.0115x elapsed=0:05:38.48    \nframe=  236 fps=0.7 q=45.0 size=     768KiB time=00:00:03.90 bitrate=1613.3kbits/s speed=0.0115x elapsed=0:05:39.04    \nframe=  237 fps=0.7 q=40.0 size=     768KiB time=00:00:03.91 bitrate=1606.4kbits/s speed=0.0115x elapsed=0:05:39.62    \nframe=  237 fps=0.7 q=40.0 size=     768KiB time=00:00:03.91 bitrate=1606.4kbits/s speed=0.0115x elapsed=0:05:40.18    \nframe=  238 fps=0.7 q=43.6 size=     768KiB time=00:00:03.93 bitrate=1599.6kbits/s speed=0.0115x elapsed=0:05:40.80    \nframe=  238 fps=0.7 q=43.6 size=     768KiB time=00:00:03.93 bitrate=1599.6kbits/s speed=0.0115x elapsed=0:05:41.41    \nframe=  238 fps=0.7 q=43.6 size=     768KiB time=00:00:03.93 bitrate=1599.6kbits/s speed=0.0115x elapsed=0:05:42.00    \nReceived > 3 system signals, hard exiting\n",
  "seconds": 342.9403293132782
}